<svg width="80" height="70" viewBox="0 0 80 70" fill="none" xmlns="http://www.w3.org/2000/svg">
<path d="M50.145 40.066L55.938 50.091L50.989 49.566C50.579 49.528 50.192 49.753 50.032 50.129L48.016 54.687L41.332 43.092C41.754 42.963 42.187 42.775 42.641 42.515C43.844 41.816 45.213 41.316 46.838 41.291C48.203 41.269 49.275 40.873 50.145 40.066ZM29.801 40.061C30.672 40.873 31.744 41.269 33.114 41.291C34.739 41.316 36.079 41.863 37.313 42.515C37.766 42.749 38.204 42.941 38.629 43.072L31.941 54.676L29.921 50.129C29.753 49.753 29.368 49.529 28.956 49.566L24.018 50.091L29.801 40.061ZM45.979 11.534C47.245 12.843 48.536 13.769 50.385 14.362C51.619 14.753 52.41 15.416 52.666 16.993C52.963 18.791 53.604 20.249 54.828 21.749C55.644 22.753 55.969 23.717 55.322 25.192C54.593 26.859 54.347 28.436 54.562 30.362C54.707 31.649 54.453 32.624 53.109 33.52C51.593 34.525 50.531 35.723 49.66 37.458C49.088 38.619 48.332 39.311 46.722 39.344C44.906 39.374 43.368 39.833 41.687 40.797C40.609 41.421 39.578 41.677 38.265 40.797C36.65 39.718 35.04 39.374 33.228 39.344C31.613 39.311 30.863 38.619 30.285 37.458C29.422 35.723 28.359 34.526 26.844 33.52C25.5 32.624 25.239 31.649 25.385 30.362C25.604 28.436 25.36 26.858 24.625 25.192C23.979 23.717 24.301 22.753 25.119 21.749C26.344 20.249 26.988 18.791 27.285 16.993C27.541 15.416 28.332 14.753 29.566 14.362C31.416 13.769 32.754 12.883 33.972 11.534C35.046 10.343 36.056 10.274 37.327 10.545C39.796 11.082 40.89 10.883 43.534 10.43C44.572 10.252 45.432 10.967 45.979 11.534ZM36.27 8.367C34.86 8.326 33.666 8.957 32.573 10.17C31.489 11.367 30.214 12.061 28.907 12.52C26.802 13.264 25.708 14.52 25.37 16.603C25.114 18.202 24.411 19.468 23.563 20.561C22.198 22.315 21.958 23.973 22.801 25.9C23.453 27.383 23.563 28.815 23.438 30.201C23.239 32.425 23.938 33.941 25.698 35.108C27.052 36.004 27.911 37.16 28.563 38.389L21.454 50.764C21.073 51.431 21.604 52.253 22.37 52.176L28.474 51.525L30.97 57.144C31.286 57.843 32.255 57.889 32.646 57.234L39.974 44.52L47.302 57.234C47.693 57.901 48.677 57.854 48.99 57.144L51.474 51.525L57.583 52.176C58.349 52.253 58.88 51.431 58.495 50.764L51.391 38.389C52.041 37.16 52.901 36.004 54.254 35.108C56.016 33.941 56.713 32.425 56.516 30.201C56.391 28.815 56.495 27.384 57.145 25.9C57.995 23.973 57.75 22.315 56.385 20.561C55.535 19.468 54.838 18.201 54.582 16.603C54.244 14.52 53.15 13.265 51.047 12.52C49.738 12.061 48.463 11.368 47.379 10.17C46.285 8.957 45.113 8.326 43.697 8.42C41.91 8.545 39.812 9.285 37.759 8.635C37.234 8.467 36.738 8.378 36.27 8.367Z" fill="#00B6C4"/>
<path d="M39.941 18.498C39.369 18.509 38.91 18.894 38.916 19.367V20.545C38.838 20.566 38.754 20.577 38.672 20.597C37.129 21.039 35.932 22.201 35.932 23.623C35.932 24.492 36.37 25.222 36.957 25.686C37.541 26.143 38.219 26.367 38.781 26.482C39.828 26.706 40.728 26.873 41.207 27.113C41.691 27.353 41.91 27.525 41.91 28.379C41.91 28.796 41.578 29.192 40.801 29.42C40.026 29.644 38.838 29.629 37.473 29.01C36.235 28.384 35.172 29.977 36.469 30.51C37.297 30.884 38.125 31.108 38.916 31.201V32.296C38.916 33.442 41 33.442 41 32.296V31.149C41.166 31.118 41.338 31.083 41.494 31.034C42.916 30.624 43.994 29.608 43.994 28.379C43.994 27.103 43.26 26.129 42.291 25.644C41.316 25.161 40.26 25.01 39.297 24.822C38.442 24.655 38.088 24.239 38.004 23.625C37.926 23.005 38.535 22.464 39.359 22.224C40.181 21.99 41.238 22.062 42.269 22.869C43.275 23.719 44.781 22.412 43.703 21.625C42.879 20.978 41.937 20.614 41 20.474V19.369C41.004 18.883 40.525 18.493 39.941 18.498Z" fill="#00B6C4"/>
<path fill-rule="evenodd" clip-rule="evenodd" d="M39.973 16.43C45.176 16.43 49.379 20.634 49.379 25.836C49.379 31.039 45.176 35.232 39.973 35.232C34.77 35.232 30.573 31.038 30.573 25.836C30.572 20.634 34.77 16.43 39.973 16.43ZM39.973 14.539C33.75 14.539 28.682 19.607 28.682 25.836C28.682 32.06 33.75 37.123 39.973 37.123C46.203 37.123 51.27 32.06 51.27 25.836C51.27 19.607 46.203 14.539 39.973 14.539Z" fill="#00B6C4"/>
<path d="M29.328 64.191C28.223 65.962 26.707 67.134 24.906 67.342C23.16 67.544 21.135 66.738 19.093 65.143C20.941 64.284 22.644 63.383 24.503 63.175C26.363 62.962 27.691 63.343 29.328 64.191ZM13.75 55.206C15.676 55.4 17.082 56.279 18.691 58.14C17.009 59.379 15.171 59.906 13.421 59.431C11.722 58.973 10.14 57.473 8.83701 55.234C10.363 55.148 11.822 55.009 13.75 55.206ZM3.09401 41.988C5.01001 42.681 6.84801 43.244 8.03501 44.004C9.31601 44.827 10.265 46.192 11.015 48.529C8.98401 49.009 7.08101 48.769 5.66001 47.649C4.28101 46.561 3.41001 44.561 3.09401 41.988ZM2.51601 27.613C4.03601 28.967 5.53601 30.17 6.36001 31.321C7.23901 32.555 7.61401 34.176 7.44201 36.629C5.37601 36.315 3.70401 35.389 2.79701 33.821C1.92201 32.295 1.85401 30.118 2.51601 27.613ZM7.82801 13.836C8.62501 15.716 9.46901 17.445 9.71901 18.836C9.98901 20.331 9.63501 21.957 8.43801 24.097C6.69801 22.935 5.57901 21.383 5.43201 19.576C5.29101 17.826 6.16001 15.826 7.82801 13.836ZM16.91 3.394C17.166 5.415 17.353 7.307 17.219 8.712C17.073 10.228 16.448 11.696 14.707 13.431C13.353 11.843 12.697 10.046 13.047 8.264C13.385 6.539 14.766 4.853 16.91 3.394ZM17.16 0.987C13.838 2.779 11.838 5.248 11.316 7.924C10.843 10.326 11.593 12.79 13.359 14.779C12.619 15.826 11.947 16.904 11.343 18.019C10.884 16.055 9.93101 14.205 8.94701 11.795C8.69101 11.175 7.89401 11.009 7.41601 11.457C4.66001 14.039 3.45301 17.003 3.67201 19.717C3.89501 22.425 5.57801 24.806 8.26601 26.217C7.97301 27.493 7.76601 28.78 7.62901 30.082C6.36301 28.405 4.64501 27.124 2.65601 25.285C2.12901 24.801 1.35901 25.034 1.12501 25.629C-0.249988 29.143 -0.0939879 32.342 1.26601 34.701C2.57301 36.973 4.98901 38.373 7.87901 38.586C8.08801 39.858 8.37501 41.118 8.73801 42.367C6.94101 41.296 4.89401 40.7 2.35901 39.774C1.56601 39.487 1.05001 40.003 1.06601 40.665C1.15001 44.436 2.42501 47.348 4.56601 49.034C6.62901 50.665 9.40001 51.066 12.171 50.181C12.853 51.301 13.597 52.372 14.409 53.4C12.264 53.05 10.093 53.457 7.29601 53.488C6.56201 53.493 6.19101 54.228 6.45201 54.81C8.00301 58.253 10.331 60.419 12.956 61.134C15.487 61.821 18.186 61.107 20.378 59.222C21.421 59.998 22.503 60.712 23.628 61.362C21.493 61.831 19.603 62.982 17.015 64.091C16.347 64.378 16.238 65.139 16.722 65.634C19.378 68.315 22.406 69.41 25.109 69.097C27.718 68.796 29.968 67.129 31.306 64.55C32.244 64.806 33.191 65.029 34.156 65.2C35.422 65.45 35.76 63.528 34.478 63.336C24.078 61.508 15.374 54.415 11.478 44.596C7.63401 34.914 9.03101 23.694 15.128 15.538C16.675 13.472 18.806 12.008 19.128 8.882C19.358 6.694 18.821 4.544 18.54 1.726C18.469 1.009 17.719 0.686 17.16 0.987Z" fill="#00B6C4"/>
<path d="M50.6251 64.191C51.7291 65.962 53.2441 67.134 55.0471 67.342C56.7911 67.544 58.8131 66.738 60.8601 65.143C59.0101 64.284 57.3071 63.383 55.4481 63.175C53.5881 62.962 52.2601 63.343 50.6251 64.191ZM66.2031 55.206C64.2691 55.4 62.8631 56.279 61.2541 58.14C62.9421 59.379 64.7811 59.906 66.5311 59.431C68.2221 58.973 69.8061 57.473 71.1131 55.234C69.5881 55.148 68.1291 55.009 66.2031 55.206ZM76.8591 41.988C74.9411 42.681 73.1031 43.244 71.9101 44.004C70.6291 44.827 69.6871 46.192 68.9311 48.529C70.9681 49.009 72.8631 48.769 74.2901 47.649C75.6721 46.561 76.5411 44.561 76.8591 41.988ZM77.4381 27.613C75.9171 28.967 74.4171 30.17 73.5941 31.321C72.7071 32.555 72.3381 34.176 72.5101 36.629C74.5731 36.315 76.2501 35.389 77.1561 33.821C78.0311 32.295 78.0941 30.118 77.4381 27.613ZM72.1251 13.836C71.3281 15.716 70.4841 17.445 70.2291 18.836C69.9581 20.331 70.3131 21.957 71.5161 24.097C73.2501 22.935 74.3701 21.383 74.5201 19.576C74.6601 17.826 73.7911 15.826 72.1251 13.836ZM63.0411 3.394C62.7851 5.415 62.5981 7.307 62.7341 8.712C62.8791 10.228 63.5041 11.696 65.2381 13.431C66.5931 11.843 67.2501 10.046 66.9061 8.264C66.5661 6.539 65.1821 4.853 63.0411 3.394ZM62.7911 0.987C66.1131 2.779 68.1131 5.248 68.6351 7.924C69.1041 10.326 68.3541 12.79 66.5941 14.779C67.3321 15.826 68.0041 16.904 68.6101 18.019C69.0631 16.055 70.0201 14.205 71.0051 11.795C71.2551 11.175 72.0581 11.009 72.5361 11.457C75.2861 14.039 76.5011 17.003 76.2821 19.717C76.0571 22.425 74.3761 24.806 71.6881 26.217C71.9791 27.493 72.1881 28.78 72.3231 30.082C73.5891 28.405 75.3021 27.124 77.2981 25.285C77.8231 24.801 78.5951 25.034 78.8291 25.629C80.2041 29.143 80.0421 32.342 78.6881 34.701C77.3751 36.973 74.9631 38.373 72.0731 38.586C71.8641 39.858 71.5791 41.118 71.2141 42.367C73.0051 41.296 75.0581 40.7 77.5951 39.774C78.3861 39.487 78.9021 40.003 78.8861 40.665C78.7981 44.436 77.5271 47.348 75.3861 49.034C73.3231 50.665 70.5521 51.066 67.7821 50.181C67.0981 51.301 66.3481 52.372 65.5421 53.4C67.6881 53.05 69.8551 53.457 72.6571 53.488C73.3911 53.493 73.7611 54.228 73.4951 54.81C71.9481 58.253 69.6201 60.419 66.9891 61.134C64.4641 61.821 61.7661 61.107 59.5671 59.222C58.5321 59.998 57.4481 60.712 56.3171 61.362C58.4581 61.831 60.3441 62.982 62.9381 64.091C63.6041 64.378 63.7131 65.139 63.2231 65.634C60.5731 68.315 57.5471 69.41 54.8381 69.097C52.2291 68.796 49.9841 67.129 48.6451 64.55C47.7071 64.806 46.7601 65.029 45.7971 65.2C44.5311 65.45 44.1921 63.528 45.4731 63.336C55.8751 61.508 64.5781 54.415 68.4731 44.596C72.3171 34.914 70.9221 23.694 64.8231 15.538C63.2761 13.472 61.1411 12.008 60.8171 8.882C60.5941 6.694 61.1261 4.544 61.4111 1.726C61.4791 1.009 62.2291 0.686 62.7911 0.987Z" fill="#00B6C4"/>
</svg>
