<svg width="66" height="68" viewBox="0 0 66 68" fill="none" xmlns="http://www.w3.org/2000/svg">
<path d="M32.95 45.17C36.65 45.17 39.51 48.03 39.51 51.73C39.51 55.33 36.65 58.29 32.95 58.29C29.35 58.29 26.39 55.33 26.39 51.73C26.39 48.03 29.35 45.17 32.95 45.17ZM32.95 16.9C30.83 16.9 29.14 18.59 29.14 20.71C29.14 22.51 30.3 24.1 32 24.52V43.36C28.72 43.78 25.97 46.11 25.01 49.18H0.97999C0.97999 37.64 0.97999 26 0.97999 14.46C0.86999 12.87 2.56999 11.92 3.93999 11.92H16.85L18.12 13.19C17.7 13.93 17.38 14.78 17.06 15.52H14.2C12.61 15.52 11.24 16.9 11.24 18.48V20.7C11.24 21.23 11.66 21.65 12.19 21.65H12.61V24.51C11.34 24.93 10.39 26.1 10.39 27.47C10.39 29.16 11.77 30.54 13.46 30.54C15.26 30.54 16.64 29.16 16.64 27.47C16.64 26.09 15.69 24.93 14.42 24.51V21.65H17.07V31.49C15.48 31.91 14.21 33.4 14.21 35.09C14.21 37.21 15.9 38.9 18.02 38.9C20.14 38.9 21.83 37.21 21.83 35.09C21.83 33.4 20.56 31.91 18.97 31.49V21.65H21.62V24.51C20.35 24.93 19.4 26.1 19.4 27.47C19.4 29.16 20.88 30.54 22.58 30.54C24.28 30.54 25.65 29.16 25.65 27.47C25.65 26.09 24.7 24.93 23.43 24.51V21.65H26.5V31.18L23.96 33.93C23.75 34.04 23.64 34.35 23.64 34.57V38.7C22.37 39.12 21.42 40.29 21.42 41.66C21.42 43.46 22.8 44.84 24.6 44.84C26.29 44.84 27.67 43.46 27.67 41.66C27.67 40.28 26.72 39.12 25.55 38.8V34.99L28.09 32.13C28.2 31.92 28.3 31.71 28.3 31.49V20.69C28.3 20.16 27.88 19.74 27.35 19.74H23.86C24.39 15.08 28.2 11.59 32.96 11.59C37.72 11.59 41.64 15.08 42.06 19.74H38.57C38.04 19.74 37.62 20.16 37.62 20.69V31.49C37.62 31.7 37.73 31.91 37.94 32.13L40.48 34.99V38.8C39.21 39.12 38.36 40.28 38.36 41.66C38.36 43.46 39.74 44.84 41.43 44.84C43.12 44.84 44.5 43.46 44.5 41.66C44.5 40.28 43.55 39.12 42.28 38.7V34.57C42.28 34.36 42.17 34.04 41.96 33.93L39.53 31.18V21.65H42.49V24.51C41.22 24.93 40.37 26.1 40.37 27.47C40.37 29.16 41.75 30.54 43.44 30.54C45.13 30.54 46.51 29.16 46.51 27.47C46.51 26.09 45.56 24.93 44.39 24.51V21.65H46.93V31.49C45.34 31.91 44.07 33.4 44.07 35.09C44.07 37.21 45.76 38.9 47.88 38.9C50 38.9 51.69 37.21 51.69 35.09C51.69 33.4 50.53 31.91 48.83 31.49V21.65H51.48V24.51C50.21 24.93 49.36 26.1 49.36 27.47C49.36 29.16 50.74 30.54 52.43 30.54C54.12 30.54 55.5 29.16 55.5 27.47C55.5 26.09 54.65 24.93 53.38 24.51V21.65H53.7C54.23 21.65 54.65 21.23 54.65 20.7V18.48C54.65 16.89 53.27 15.52 51.69 15.52H48.83C48.62 14.78 48.3 13.93 47.88 13.19L49.04 11.92H61.95C63.43 11.92 65.02 12.87 65.02 14.46V49.18H40.99C39.93 46.11 37.29 43.78 33.9 43.36V24.53C35.59 24.11 36.86 22.52 36.86 20.72C36.87 18.6 35.07 16.9 32.95 16.9ZM32.95 18.7C34.11 18.7 34.96 19.65 34.96 20.71C34.96 21.87 34.11 22.72 32.95 22.72C31.89 22.72 30.94 21.87 30.94 20.71C30.94 19.66 31.89 18.7 32.95 18.7ZM32.95 9.71C27.23 9.71 22.47 14.05 21.94 19.77H13.15V18.5C13.15 17.97 13.68 17.44 14.21 17.44H17.81C18.23 17.44 18.55 17.12 18.66 16.7C18.98 15.64 19.4 14.58 20.04 13.52C20.25 13.2 20.25 12.67 19.93 12.36L17.39 9.82C16.97 9.4 16.97 8.66 17.39 8.34L20.57 5.16C20.99 4.74 21.63 4.74 22.05 5.16L24.59 7.59C24.8 7.91 25.33 8.01 25.75 7.8C26.7 7.27 27.87 6.74 28.93 6.42C29.35 6.31 29.67 6 29.67 5.57V1.97C29.67 1.44 30.2 0.910004 30.73 0.910004H35.18C35.82 0.910004 36.34 1.44 36.34 1.97V5.57C36.34 5.99 36.55 6.31 36.98 6.42C38.14 6.74 39.2 7.27 40.26 7.8C40.68 8.01 41.11 7.91 41.42 7.59L43.85 5.16C44.27 4.74 45.01 4.74 45.44 5.16L48.51 8.34C49.04 8.66 48.93 9.4 48.51 9.82L46.08 12.36C45.76 12.68 45.66 13.21 45.97 13.52C46.5 14.58 46.92 15.64 47.24 16.7C47.35 17.12 47.77 17.44 48.19 17.44H51.68C52.32 17.44 52.74 17.97 52.74 18.5V19.77H43.95C43.54 14.05 38.77 9.71 32.95 9.71ZM24.59 40.51C25.23 40.51 25.75 41.04 25.75 41.67C25.75 42.41 25.22 42.94 24.59 42.94C23.85 42.94 23.32 42.41 23.32 41.67C23.32 41.04 23.85 40.51 24.59 40.51ZM41.42 40.51C42.06 40.51 42.58 41.04 42.58 41.67C42.58 42.41 42.05 42.94 41.42 42.94C40.68 42.94 40.15 42.41 40.15 41.67C40.15 41.04 40.68 40.51 41.42 40.51ZM13.47 26.33C14.21 26.33 14.74 26.86 14.74 27.49C14.74 28.23 14.21 28.76 13.47 28.76C12.83 28.76 12.31 28.23 12.31 27.49C12.31 26.85 12.84 26.33 13.47 26.33ZM52.43 26.33C53.07 26.33 53.59 26.86 53.59 27.49C53.59 28.23 53.06 28.76 52.43 28.76C51.79 28.76 51.16 28.23 51.16 27.49C51.16 26.85 51.69 26.33 52.43 26.33ZM22.58 26.33C23.22 26.33 23.74 26.86 23.74 27.49C23.74 28.23 23.21 28.76 22.58 28.76C21.84 28.76 21.31 28.23 21.31 27.49C21.31 26.85 21.83 26.33 22.58 26.33ZM43.43 26.33C44.07 26.33 44.59 26.86 44.59 27.49C44.59 28.23 44.06 28.76 43.43 28.76C42.69 28.76 42.16 28.23 42.16 27.49C42.16 26.85 42.69 26.33 43.43 26.33ZM18.02 33.21C19.08 33.21 19.93 34.06 19.93 35.12C19.93 36.28 19.08 37.13 18.02 37.13C16.96 37.13 16.11 36.28 16.11 35.12C16.12 34.05 16.97 33.21 18.02 33.21ZM47.88 33.21C48.94 33.21 49.89 34.06 49.89 35.12C49.89 36.28 48.94 37.13 47.88 37.13C46.82 37.13 45.97 36.28 45.97 35.12C45.97 34.05 46.82 33.21 47.88 33.21ZM0.97999 50.99H24.59C24.59 51.31 24.59 51.52 24.59 51.73C24.59 52.89 24.91 53.95 25.33 55.01C18.13 55.12 11.04 55.43 3.94999 55.86C2.46999 55.75 0.98999 55.01 0.98999 53.32V50.99H0.97999ZM41.31 50.99H65.02V53.32C65.02 54.91 63.43 55.97 61.95 55.86C54.96 55.44 47.77 55.12 40.67 55.01C41.09 53.95 41.31 52.89 41.31 51.73C41.31 51.52 41.31 51.31 41.31 50.99ZM39.51 56.92H39.62L41.63 61.58H24.27L26.28 56.92H26.39C27.98 58.83 30.31 60.1 32.95 60.1C35.6 60.09 38.03 58.82 39.51 56.92ZM29.88 53.85C29.99 55.12 30.94 55.86 32.1 56.18V56.82C32.1 57.98 33.9 57.98 33.9 56.82V56.18C35.06 55.86 36.12 54.91 36.12 53.53C36.12 51.84 34.53 50.78 32.94 50.78C32.41 50.78 31.67 50.46 31.67 49.83C31.67 48.67 34.1 48.56 34.32 49.72C34.53 50.88 36.23 50.67 36.12 49.51C35.91 48.35 34.96 47.5 33.9 47.18V46.54C33.9 45.38 32.1 45.38 32.1 46.54V47.18C30.83 47.5 29.88 48.45 29.88 49.83C29.88 51.52 31.47 52.58 32.95 52.58C33.48 52.58 34.33 52.9 34.33 53.53C34.33 54.8 31.79 54.8 31.58 53.64C31.47 52.47 29.67 52.68 29.88 53.85ZM51.9 53.42C51.9 54.58 53.81 54.58 53.81 53.42C53.8 52.15 51.9 52.15 51.9 53.42ZM55.92 53.42C55.92 54.58 57.83 54.58 57.83 53.42C57.83 52.15 55.92 52.15 55.92 53.42ZM59.94 53.42C59.94 54.58 61.85 54.58 61.85 53.42C61.85 52.15 59.94 52.15 59.94 53.42ZM17.07 67.08C17.07 64.54 18.13 63.38 20.67 63.38H45.33C47.76 63.38 48.82 64.54 48.82 67.08H17.07Z" fill="#00B6C4"/>
</svg>
