<svg width="79" height="72" viewBox="0 0 79 72" fill="none" xmlns="http://www.w3.org/2000/svg">
<path fill-rule="evenodd" clip-rule="evenodd" d="M69.6109 47.551L69.5879 47.5487C65.5826 60.3333 53.6525 69.9207 39.1494 71.274L39.1295 71.276C37.9728 71.3833 36.7995 71.4383 35.6127 71.4383C16.0524 71.4383 0.195801 56.5143 0.195801 38.105C0.195801 19.6952 16.0524 4.7714 35.6127 4.7714C36.808 4.7714 37.9895 4.82713 39.1543 4.936V64.5653C50.2596 63.262 59.3691 55.9097 62.643 46.122C53.989 43.4623 46.9846 37.7307 43.9034 29.7457C40.0295 19.7065 43.3406 8.65367 51.4793 0.5638C63.2373 1.85273 73.313 8.3301 77.1865 18.3693C81.0604 28.4083 77.7496 39.4613 69.6109 47.551ZM54.2698 7.7951C62.115 9.60673 68.094 14.3351 70.5289 20.645C72.078 24.6596 72.0901 29.0497 70.6628 33.2907C70.0306 29.1775 68.6005 25.3075 66.5247 21.8241C65.6297 20.3221 63.5908 19.8997 62.0062 20.7608C60.2106 21.7364 59.7208 23.9526 60.688 25.6785C62.7684 29.3893 63.946 33.6177 63.946 38.105C63.946 38.568 63.9333 39.0283 63.9085 39.4853C57.5055 37.2743 52.6849 32.9737 50.5613 27.4698C48.1264 21.16 49.4882 13.9227 54.2698 7.7951ZM22.6489 14.3867C14.5184 18.3311 8.67772 25.87 7.49835 34.7717H14.5056C15.1703 27.0658 18.1172 20.0325 22.6489 14.3867ZM21.6165 34.7717C22.4646 26.5487 26.4106 19.3998 32.0708 14.4861V34.7717H21.6165ZM21.6165 41.4383H32.0708V61.7237C26.4106 56.8097 22.4646 49.661 21.6165 41.4383ZM14.5056 41.4383C15.1703 49.1437 18.1172 56.177 22.6489 61.823C14.5184 57.8783 8.67772 50.3397 7.49835 41.4383H14.5056Z" fill="#00B6C4"/>
</svg>
