<svg width="127" height="98" viewBox="0 0 127 98" fill="none" xmlns="http://www.w3.org/2000/svg">
<path d="M29.6518 62.5858L26.7256 66.7625L28.0175 68.6286C28.293 68.1683 28.5904 67.7368 28.9045 67.3321L30.1451 63.1585C29.9805 62.9791 29.8135 62.7817 29.6518 62.5858ZM73.0612 59.8799C72.9239 59.635 72.8502 59.351 72.8575 59.0571C72.541 58.703 72.2108 58.3014 71.9011 57.9245L71.6916 57.6688L66.2802 65.3928L69.877 70.5896L73.0612 59.8799ZM74.1426 57.5657C74.3243 57.5425 74.5128 57.5554 74.6999 57.609L90.1862 62.0713L90.1897 62.0723C89.2343 58.0797 88.8098 53.1854 89.2582 48.4365C89.7227 43.5175 91.126 38.732 93.8451 35.208C94.546 34.2996 95.2797 33.5068 96.0372 32.8222C99.1017 30.0528 102.527 29.0698 105.803 29.3069C109.05 29.542 112.141 30.9844 114.572 33.0743C115.329 33.7248 116.021 34.4357 116.632 35.1879L116.664 35.2312C119.751 39.2465 121.271 45.145 121.666 51.0079C122.111 57.6271 121.115 64.2669 119.321 68.1033C121.692 69.44 123.444 71.0067 124.676 72.8563C126.964 76.2917 127.413 80.5957 126.671 86.1215C126.631 86.653 126.21 87.0716 125.697 87.0716H101.655L102.042 90.756C102.138 91.6684 102.058 92.5474 101.806 93.3789C101.556 94.2037 101.136 94.9672 100.552 95.6559C99.9692 96.3436 99.2956 96.8679 98.5444 97.222C97.7854 97.5798 96.9663 97.7618 96.1007 97.7618H30.4626C29.5971 97.7618 28.7785 97.5798 28.0194 97.222C27.2682 96.8679 26.5947 96.3436 26.011 95.6559C25.4278 94.9677 25.0082 94.2037 24.7581 93.3789C24.5056 92.5468 24.4255 91.6679 24.5212 90.756L24.91 87.0582L3.92727 86.9097L3.84668 86.9128C3.29866 86.9128 2.77945 86.7978 2.29785 86.5705C1.82162 86.3457 1.39473 86.0132 1.02498 85.5776C0.655233 85.1415 0.389523 84.6574 0.230781 84.1342C0.070574 83.6068 0.0197764 83.0496 0.0808311 82.4717L1.19007 71.914C1.77766 66.3181 7.50263 64.5365 7.51924 64.5313L7.51973 64.5339L17.1698 61.7532C17.2587 61.728 17.3476 61.7161 17.435 61.7171C17.5283 61.5635 17.6348 61.3032 17.8575 61.032C18.0172 60.8382 18.1681 60.6542 18.3049 60.499L18.3103 58.9081C17.2655 58.1209 16.3717 57.2368 15.6126 56.1383C14.6641 54.7655 13.9461 53.087 13.4298 50.8806C12.6996 50.7048 12.1164 50.1408 11.6661 49.3737C11.2812 48.7185 10.9837 47.8994 10.7766 47.0787C10.4411 45.7502 10.3321 44.3423 10.4616 43.6041C10.5002 43.385 10.5656 43.1865 10.6535 43.0066C10.2154 42.17 9.94091 41.1539 9.8061 40.1007C9.58728 38.3928 9.7304 36.5308 10.1358 35.2147C9.60194 34.2831 9.14916 33.0361 9.008 31.5473C8.88247 30.2178 9.00653 28.6934 9.5487 27.0299C9.58484 26.8948 9.64834 26.7654 9.7387 26.651C10.0845 26.2154 10.6995 26.1576 11.1127 26.5221C11.5327 26.8928 12.0939 27.2036 12.6972 27.4505C13.4347 27.7537 14.2245 27.9583 14.9044 28.0635L14.9401 28.0676C15.5697 28.1491 16.1504 28.1764 16.718 28.1542C17.2787 28.132 17.8414 28.064 18.4363 27.9537L18.492 27.9403C19.1465 27.8037 19.6042 27.7016 20.0496 27.6031C22.2696 27.1088 24.2277 26.6731 26.7695 26.7329L26.8101 26.7335C28.4107 26.7984 30.3087 27.2284 31.8713 28.1449C32.9912 28.8022 33.9471 29.708 34.5308 30.907C34.5767 30.9153 34.6231 30.9251 34.669 30.9369C34.9381 31.0034 35.2117 31.1282 35.4837 31.3189C35.5091 31.3344 35.5345 31.3514 35.5594 31.3695C36.6208 32.1618 37.3129 33.7032 37.6495 35.4719C37.9181 36.8865 37.9709 38.4665 37.8106 39.9053C37.6988 40.9064 37.4819 41.8565 37.1605 42.6623C37.3388 42.9195 37.4717 43.236 37.5396 43.6206C37.69 44.4743 37.5391 46.4724 37.0311 48.0267C37.0208 48.0576 37.0096 48.088 36.9969 48.1169C36.8059 48.6819 36.5637 49.2046 36.2672 49.6222C35.8886 50.1547 35.4183 50.531 34.8439 50.6604C34.437 52.7916 33.827 54.4443 32.9282 55.8372C32.2737 56.8512 31.4781 57.7106 30.507 58.5004L30.5403 60.5387C30.6677 60.6856 30.8069 60.8547 30.953 61.0325C31.187 61.3171 31.2973 61.5914 31.395 61.7409L31.438 61.7522L34.7936 62.7198C35.7382 62.2703 36.3702 62.0734 36.3771 62.0713L51.863 57.6075C52.0505 57.5534 52.2396 57.541 52.4218 57.5642C52.6357 57.2801 52.9077 56.9208 53.1886 56.579C53.51 56.1883 53.8094 55.8238 54.0526 55.5599L54.0634 52.425C52.3206 51.1471 50.8451 49.7155 49.6049 47.921C48.0673 45.6961 46.9156 42.9448 46.0965 39.2738C46.0159 39.2656 45.9363 39.2537 45.8567 39.2382C44.8012 39.0315 43.9454 38.2088 43.2758 37.0695C42.6896 36.072 42.2344 34.8121 41.9135 33.5439C41.3943 31.4875 41.2209 29.3332 41.4163 28.2217C41.451 28.0238 41.5013 27.8397 41.5643 27.6696C40.6719 26.2427 40.1297 24.3874 39.8821 22.4526C39.5295 19.6972 39.7644 16.6928 40.4238 14.5864C39.5612 13.0946 38.8251 11.0871 38.598 8.68538C38.3973 6.55786 38.5956 4.11794 39.465 1.45429C39.5197 1.2522 39.6144 1.05786 39.7507 0.88619C40.2689 0.232521 41.1916 0.145915 41.8109 0.692873C42.4967 1.29757 43.4111 1.80432 44.3918 2.20642C45.59 2.69822 46.8716 3.03021 47.974 3.20084L48.0292 3.20651C49.0471 3.33848 49.9874 3.38282 50.9081 3.34673C51.8195 3.31116 52.7319 3.19981 53.6976 3.02093L53.7816 3.00082C54.8097 2.78637 55.56 2.61934 56.2897 2.45696C59.8587 1.66255 63.0072 0.961971 67.0885 1.05786L67.1496 1.05889C69.7119 1.16354 72.75 1.85071 75.2503 3.31786C77.0517 4.37518 78.5864 5.83408 79.5129 7.76879C79.6028 7.78323 79.6927 7.80179 79.7825 7.82395C80.207 7.92912 80.6373 8.12656 81.0657 8.42762C81.1043 8.45082 81.1419 8.47608 81.1785 8.5034C82.8685 9.76434 83.9704 12.2197 84.5057 15.0391C84.9341 17.2919 85.0166 19.823 84.7578 22.1413C84.5502 24.0007 84.1164 25.7493 83.458 27.1521C83.6353 27.4572 83.7692 27.8202 83.8444 28.248C84.073 29.5471 83.8336 32.6144 83.0463 35.0244C82.7517 35.9261 82.3737 36.7617 81.9048 37.4221C81.3631 38.1845 80.6984 38.714 79.8944 38.8717C79.7923 38.8913 79.6892 38.9052 79.5852 38.9124C78.9473 42.4695 77.9739 45.1867 76.5125 47.4509C75.4447 49.1046 74.1294 50.4986 72.5068 51.7843L72.5693 55.6253C72.8013 55.8826 73.0783 56.2192 73.3742 56.579C73.6556 56.9219 73.9281 57.2822 74.1426 57.5657ZM92.4829 63.0786C93.6595 63.7034 95.1243 64.6473 96.4695 65.9876L98.4765 65.2366L98.7153 65.0144L98.7168 65.0159L98.7232 65.0102C98.7871 64.952 98.8511 64.8901 98.9146 64.8247C98.9781 64.7597 99.0328 64.6994 99.0782 64.6447C99.5677 64.0602 99.8978 63.3848 100.104 62.7064C100.299 62.0631 100.382 61.4182 100.383 60.8444C99.5486 60.1974 98.7876 59.3958 98.119 58.4844C96.2453 55.929 95.0858 52.4771 95.0858 49.1474C95.0858 47.3055 95.3759 44.0588 95.9122 41.0946C96.32 38.8418 96.8798 36.7236 97.5817 35.4343C97.7394 35.0873 98.075 34.8476 98.4633 34.8476C99.003 34.8476 99.4407 35.3095 99.4407 35.8786C99.4407 37.1133 100.372 37.9758 101.626 38.5763C104.2 39.8094 107.976 39.9522 109.112 39.9527V39.9486C112.12 39.9486 113.697 41.1013 114.539 43.185C115.293 45.0501 115.342 47.5813 115.342 50.6981C115.342 53.9571 114.216 56.9172 112.397 59.0679C111.878 59.6809 111.303 60.2289 110.681 60.6985C110.671 61.3707 110.734 62.1533 110.917 62.8935C111.081 63.557 111.339 64.1803 111.726 64.6329C111.8 64.7195 111.88 64.804 111.966 64.8855L111.964 64.8876L111.966 64.8896C112.021 64.9417 112.089 65.0015 112.169 65.0675L112.172 65.07L112.174 65.0716L112.177 65.0736L112.179 65.0757L112.21 65.101L112.213 65.1035L112.215 65.1056L112.253 65.1355C112.302 65.1742 112.346 65.217 112.385 65.2628L112.456 65.3283C114.376 65.8933 116.075 66.5171 117.571 67.2099C119.229 63.6952 120.144 57.4466 119.72 51.1435C119.35 45.6471 117.956 40.1589 115.139 36.4988C114.599 35.8333 113.993 35.21 113.336 34.645C111.201 32.8103 108.5 31.5447 105.673 31.3401C102.875 31.138 99.9433 31.9829 97.3121 34.3615C96.6434 34.9657 95.9913 35.6709 95.3642 36.4839C92.9039 39.6723 91.6271 44.0768 91.1968 48.636C90.7118 53.7695 91.3004 59.0721 92.4829 63.0786ZM98.264 68.1786C98.7886 68.9781 99.2463 69.8695 99.5975 70.8603C99.8217 71.0928 99.9257 71.4273 99.8773 71.7537C100.054 72.4022 100.186 73.0899 100.262 73.8178L100.679 77.7867L102.92 80.3715L98.901 67.5868L98.264 68.1786ZM101.043 81.2468L101.438 85.0095H104.304L101.043 81.2468ZM26.9854 70.8031L27.0284 70.6871L26.9595 70.5876L26.9854 70.8031ZM31.7804 64.5344C31.965 64.3963 32.1492 64.2638 32.3314 64.1385L31.9323 64.0235L31.7804 64.5344ZM53.7054 59.0571C53.7122 59.3504 53.6389 59.634 53.5017 59.8783L56.6726 70.5443L60.1283 65.3958L54.862 57.6807L54.6617 57.9245C54.3516 58.3014 54.0219 58.703 53.7054 59.0571ZM51.7423 60.8356L37.2055 65.0252C36.8113 65.153 29.9097 67.4785 29.2083 74.1565L27.4289 91.0946C27.3781 91.5777 27.4157 92.0272 27.5398 92.436C27.6658 92.8525 27.8827 93.2433 28.1865 93.6016C28.4903 93.9599 28.8337 94.2295 29.2098 94.4068C29.578 94.5805 29.9976 94.6687 30.4626 94.6687H61.7997L55.3988 73.1352V73.1357L51.7423 60.8356ZM64.7636 94.6687H96.1007C96.5657 94.6687 96.9858 94.5805 97.3541 94.4068C97.7302 94.23 98.073 93.9604 98.3773 93.6016C98.6812 93.2433 98.8975 92.8525 99.0235 92.4365C99.1476 92.0272 99.1852 91.5777 99.1344 91.0946L97.3546 74.1565C97.3331 73.9487 97.3052 73.7451 97.272 73.5461L97.2715 73.543L97.2696 73.5348L97.2676 73.5234C97.2256 73.3017 97.1787 73.0924 97.1279 72.8945C97.1059 72.8239 97.0918 72.7517 97.0849 72.678C96.9677 72.2346 96.8217 71.8145 96.6532 71.4155C96.6004 71.3505 96.554 71.2778 96.5169 71.1979C96.3635 70.8711 96.1999 70.5664 96.0284 70.2829C95.8682 70.0179 95.6856 69.7493 95.4853 69.4792C95.4091 69.3844 95.3505 69.2756 95.3114 69.1601C93.0177 66.2547 89.6309 65.1139 89.3579 65.0252L74.8205 60.8372L71.1606 73.1486L64.7636 94.6687ZM57.4038 73.0038L58.9346 78.1527L60.0262 69.0967L57.4038 73.0038ZM59.9813 81.6742L63.2817 92.7773L66.3808 82.3516L64.4461 66.3052L61.8925 66.3165L61.8198 66.4248L59.9813 81.6742ZM67.4275 78.8306L69.1522 73.0295L66.2167 68.7884L67.4275 78.8306ZM64.2976 64.7649L70.6248 55.7341L70.5828 53.1694C70.3459 53.3256 70.1042 53.4808 69.857 53.6355C69.2714 54.0015 67.9633 54.6943 66.3515 55.1856C65.2984 55.5063 64.1115 55.7408 62.9031 55.7434C61.7113 55.7465 60.522 55.5181 59.4631 55.2052C57.9172 54.7479 56.613 54.0953 56.0049 53.7272L55.9981 55.8295L62.1036 64.7752L64.2976 64.7649ZM43.9938 29.9776C43.7461 29.8508 43.5102 29.7038 43.2797 29.5358C43.3002 30.472 43.4765 31.7463 43.7984 33.0206C44.0749 34.114 44.4558 35.1796 44.9321 35.99C45.3248 36.6591 45.7595 37.1288 46.2079 37.2164C46.3246 37.2391 46.4516 37.235 46.5898 37.2004L46.6631 37.1808C47.1901 37.0628 47.7078 37.418 47.8197 37.9742C48.588 41.7957 49.686 44.5557 51.1767 46.7132C52.6606 48.8598 54.5606 50.4475 56.931 51.9193C57.4199 52.2235 58.5707 52.8039 59.9896 53.2236C60.9059 53.4942 61.9189 53.6917 62.9031 53.6896C63.9103 53.6875 64.9165 53.4865 65.8171 53.2122C67.2155 52.7859 68.3541 52.1822 68.8645 51.8636C71.528 50.198 73.4832 48.4896 74.9026 46.2904C76.319 44.0959 77.2324 41.3714 77.8151 37.6726C77.8224 37.5943 77.8386 37.5159 77.8635 37.4386C78.0383 36.9004 78.5937 36.6138 79.1036 36.7983C79.2726 36.8597 79.4187 36.8741 79.5432 36.8499C79.8182 36.7957 80.0903 36.5524 80.3481 36.1895C80.6778 35.7245 80.9626 35.0801 81.1995 34.3558C81.7661 32.6222 82.0191 30.5663 81.9878 29.3074C81.3661 29.9178 80.6446 30.3359 79.8206 30.5101L79.8197 30.5055C79.7386 30.5225 79.6546 30.5323 79.5686 30.5343C78.7627 30.5544 78.0935 29.8812 78.075 29.0301L78.0593 28.2919C78.054 27.9593 78.0457 27.6248 78.0457 27.2923C78.0393 26.3881 78.051 25.637 78.0613 24.975C78.1053 22.2299 78.1209 21.1845 76.3811 17.5393C76.3425 17.5084 76.3049 17.4816 76.2677 17.4599C76.2316 17.4383 76.2013 17.4243 76.1793 17.4202C71.526 16.5882 66.3998 17.6532 61.5077 18.6693C56.2516 19.7617 51.248 20.8004 46.9464 19.5596L47.2531 28.7764C47.2687 28.9125 47.2673 29.0533 47.2463 29.1955C47.1232 30.04 46.3749 30.6184 45.5748 30.4884C44.9975 30.3946 44.4851 30.2286 43.9938 29.9776ZM44.2497 26.336L43.9508 17.3563C43.9254 16.5057 44.5584 15.7943 45.3643 15.7675C45.6129 15.7592 45.8484 15.817 46.0564 15.9257C49.9107 17.9295 55.2689 16.8166 60.9469 15.6371C66.0897 14.5684 71.4786 13.4487 76.66 14.3756C77.0307 14.4421 77.3814 14.5813 77.7101 14.7777C78.0188 14.9617 78.3065 15.1978 78.5727 15.4695C78.7119 15.6128 78.8184 15.7783 78.8921 15.9556C81.053 20.4375 81.0334 21.6753 80.9807 25.0235L80.9738 25.4823C81.4017 24.4657 81.6948 23.1831 81.8501 21.7907C82.0743 19.7833 82.003 17.5919 81.6327 15.6432C81.2337 13.5425 80.5167 11.7903 79.4958 11.0284L79.427 10.9737C79.3195 10.9031 79.2164 10.8567 79.1188 10.8325C79.0333 10.8113 78.9542 10.8113 78.8833 10.8284C78.1507 11.0052 77.4214 10.568 77.1782 9.83754C76.6145 8.16677 75.3632 6.9115 73.8304 6.01193C71.7624 4.79841 69.2123 4.22826 67.0465 4.1401L67.0295 4.13907C63.291 4.05195 60.288 4.72005 56.8851 5.47734C55.9869 5.67736 55.0642 5.88305 54.3428 6.03307C54.2978 6.04234 54.2534 6.04904 54.2089 6.05368C53.1051 6.25937 52.0588 6.38671 51.0111 6.42743C49.9043 6.47073 48.8142 6.42279 47.6741 6.27535C47.6336 6.2702 47.5936 6.26298 47.5545 6.25474C46.2606 6.05369 44.7538 5.66241 43.3388 5.08194C42.7878 4.85615 42.2481 4.60046 41.7377 4.31538C41.4402 5.79232 41.3899 7.15585 41.5057 8.38328C41.7118 10.566 42.4469 12.3141 43.2465 13.4905C43.5757 13.9756 43.6006 14.5937 43.3617 15.0911L43.2704 15.3195C42.6799 16.9954 42.4664 19.6024 42.7785 22.0413C42.9988 23.7646 43.4736 25.3498 44.2497 26.336ZM106.271 85.0095H124.842C125.366 80.4039 124.936 76.8258 123.081 74.0405C121.608 71.8289 119.211 70.0561 115.654 68.6003C115.795 68.9591 115.836 69.3431 115.786 69.7158C115.729 70.1442 115.553 70.5561 115.271 70.8933C115.099 71.1005 114.883 71.2825 114.628 71.4248L113.616 71.9903L114.239 72.7037C114.549 73.0584 114.959 73.7899 114.918 74.6709C114.89 75.2643 114.673 75.9087 114.108 76.5201L106.271 85.0095ZM105.309 81.453L106.974 76.5211C106.46 76.6118 105.972 76.6618 105.471 76.667C104.917 76.6732 104.361 76.6237 103.757 76.5134L105.309 81.453ZM107.547 74.8235L110.454 66.2093C110.393 66.1439 110.333 66.0779 110.276 66.0103C109.663 65.2927 109.269 64.3679 109.032 63.4091C108.902 62.8827 108.819 62.3445 108.774 61.8259C107.654 62.3224 106.44 62.5935 105.171 62.5935V62.5976C104.152 62.5976 103.175 62.3749 102.256 61.9713C102.195 62.4157 102.098 62.875 101.959 63.3348C101.677 64.2597 101.221 65.1881 100.536 66.0062L100.476 66.0768L103.225 74.8199C104.075 75.0364 104.778 75.1339 105.46 75.1267C106.115 75.1194 106.775 75.0143 107.547 74.8235ZM113.81 69.3307L112.03 67.6765L107.694 80.5215L112.711 75.0864C112.896 74.8859 112.965 74.7142 112.972 74.5745C112.982 74.3632 112.881 74.1848 112.804 74.0972L111.326 72.4048C111.269 72.3403 111.219 72.2666 111.179 72.1851C110.928 71.6825 111.111 71.0603 111.587 70.7958L113.72 69.6045C113.753 69.5859 113.782 69.5607 113.806 69.5318C113.834 69.4983 113.851 69.4638 113.855 69.4339C113.858 69.4117 113.855 69.3905 113.847 69.374C113.842 69.3632 113.83 69.3483 113.81 69.3307ZM101.839 59.4087C101.863 59.4231 101.886 59.4391 101.908 59.4561C102.908 60.1386 104.011 60.5356 105.171 60.5356V60.5397C107.419 60.5397 109.462 59.4535 110.947 57.6987C112.455 55.9156 113.388 53.4411 113.388 50.6981C113.388 47.8117 113.349 45.4832 112.746 43.9902C112.231 42.7159 111.181 42.0107 109.112 42.0107V42.0065C107.87 42.006 103.73 41.8452 100.824 40.4533C99.8739 39.9976 99.0441 39.4156 98.4496 38.6722C98.2171 39.5176 98.0091 40.4796 97.8279 41.4812C97.3165 44.3083 97.04 47.3983 97.04 49.1474C97.04 52.0327 98.0413 55.0196 99.6605 57.2276C100.3 58.1003 101.035 58.8468 101.839 59.4087ZM24.6819 67.9713L23.9532 67.9683L22.84 77.2011L24.4055 82.4665L25.8454 77.6217L24.6819 67.9713ZM23.8111 65.9134L24.8949 65.9186L28.5953 60.6366L28.5821 59.852C28.1689 60.0984 27.3752 60.5021 26.413 60.7954C25.7301 61.0032 24.9589 61.1558 24.1701 61.1573C23.391 61.1588 22.6188 61.0114 21.934 60.8088C21.281 60.616 20.6914 60.3665 20.2523 60.1505L20.2504 60.697L23.8111 65.9134ZM16.863 63.971L8.07557 66.5026L8.07606 66.5047C8.06336 66.5088 3.57267 67.9074 3.12819 72.1393L2.01895 82.6975C1.98818 82.9892 2.01065 83.2604 2.08538 83.5058C2.16108 83.7563 2.2915 83.9919 2.47515 84.2084C2.65831 84.4244 2.86541 84.5868 3.09156 84.6935C3.31233 84.7977 3.56583 84.8508 3.84668 84.8508C3.87843 84.8508 3.90969 84.8523 3.94046 84.8554L23.1116 84.9915L19.1567 71.6861H19.1563L16.863 63.971ZM21.1618 71.5542L21.4441 72.5053L21.6458 70.8329L21.1618 71.5542ZM21.9936 66.7656L19.1489 62.5976C18.9902 62.7889 18.827 62.9822 18.6654 63.158L20.4306 69.0946L21.9936 66.7656ZM12.5814 42.3865C12.6058 42.4153 12.6293 42.4458 12.6513 42.4782C12.685 42.5195 12.7187 42.5587 12.7538 42.5963L13.4879 36.6236C13.5553 36.0606 14.0423 35.6621 14.5757 35.7333C14.6861 35.7482 14.7896 35.7817 14.8844 35.8312C17.2523 37.0623 20.2235 36.4225 23.4169 35.7348C26.3661 35.0997 29.4911 34.4264 32.7255 35.0049C32.9595 35.0471 33.1837 35.1363 33.3961 35.2631L33.3991 35.2647L33.4001 35.2631C33.5969 35.3807 33.7801 35.5307 33.9491 35.7034C34.0424 35.7993 34.1137 35.9101 34.1625 36.0287C35.4891 38.781 35.4979 39.5733 35.4661 41.5936C35.6576 41.0353 35.7934 40.3765 35.872 39.6718C36.0112 38.4237 35.9687 37.07 35.7416 35.8745C35.4969 34.5888 35.0593 33.5171 34.4375 33.0531L34.3935 33.0181C34.3349 32.9804 34.2792 32.9557 34.2265 32.9423C34.1835 32.932 34.1444 32.9315 34.1102 32.9402C33.6223 33.0578 33.1358 32.7665 32.9737 32.2793C32.6298 31.2597 31.8639 30.4921 30.9247 29.9415C29.6498 29.1935 28.0776 28.8419 26.7412 28.7873L26.73 28.7867C24.4167 28.7331 22.5558 29.1471 20.4462 29.6167C19.8806 29.7425 19.2989 29.8719 18.8661 29.9621C18.8363 29.9683 18.8065 29.9729 18.7772 29.976C18.0905 30.1034 17.4394 30.1828 16.7864 30.208C16.0947 30.2353 15.4143 30.2054 14.7037 30.1132L14.6245 30.0998C13.8171 29.974 12.8774 29.7296 11.9948 29.3677C11.6783 29.2378 11.3676 29.0924 11.0716 28.9311C10.9046 29.8064 10.8777 30.6153 10.9466 31.3457C11.0731 32.6871 11.5249 33.7609 12.0158 34.4837C12.2341 34.8059 12.2517 35.2152 12.0944 35.5467L12.0373 35.6895C11.6749 36.72 11.5445 38.3242 11.7369 39.8264C11.8673 40.8441 12.1399 41.7818 12.5814 42.3865ZM12.3655 44.812C12.4036 45.3125 12.5037 45.9306 12.6615 46.5554C12.8246 47.2008 13.0469 47.8262 13.3224 48.2948C13.5138 48.6211 13.7038 48.8458 13.8675 48.8778C13.888 48.8819 13.9134 48.8804 13.9437 48.8737L14.0072 48.8572C14.5337 48.7391 15.0519 49.0943 15.1633 49.6506C15.6293 51.9693 16.2906 53.6365 17.1849 54.9304C18.0719 56.2141 19.2163 57.1683 20.6475 58.0575C20.9337 58.2354 21.6126 58.5772 22.4605 58.8277C23.0027 58.9875 23.5981 59.1045 24.1701 59.1035C24.7572 59.102 25.3482 58.9834 25.8786 58.822C26.707 58.5699 27.3825 58.2117 27.6849 58.0225C29.2928 57.0172 30.4699 55.9908 31.3179 54.6773C32.1633 53.3674 32.7109 51.7322 33.064 49.5062C33.0713 49.4279 33.087 49.3495 33.1124 49.2722C33.2872 48.734 33.8426 48.4473 34.3525 48.6319C34.3955 48.6474 34.4238 48.653 34.439 48.6499C34.5098 48.636 34.6041 48.5391 34.7105 48.3896C34.882 48.1473 35.0334 47.8143 35.1619 47.4364L35.1838 47.3581C35.4705 46.4807 35.6244 45.4744 35.6537 44.7434C35.3743 44.9357 35.0686 45.0743 34.7354 45.1506C34.6671 45.1687 34.5962 45.179 34.523 45.1811C33.9857 45.1945 33.5398 44.7455 33.5271 44.1779C33.5192 43.8186 33.5085 43.4567 33.5085 43.0974C33.5046 42.5349 33.5119 42.0679 33.5187 41.6565C33.5451 39.9682 33.5554 39.3223 32.4891 37.086L32.4383 37.0509L32.4393 37.0494C32.4256 37.0416 32.4139 37.0365 32.4051 37.0349C29.517 36.5184 26.5795 37.1509 23.8067 37.7484C20.7569 38.4052 17.8917 39.0217 15.2585 38.1871L14.5215 44.1825C14.52 44.2171 14.5171 44.2511 14.5117 44.2861C14.4316 44.8486 13.9349 45.2362 13.4015 45.1517C13.0327 45.0919 12.7069 44.9867 12.3968 44.8279L12.3655 44.812Z" fill="#00B6C4"/>
</svg>
