<svg width="58" height="48" viewBox="0 0 58 48" fill="none" xmlns="http://www.w3.org/2000/svg">
<path d="M31 42H29V44H31V42Z" fill="#00B6C4"/>
<path d="M8 42H6V44H8V42Z" fill="#00B6C4"/>
<path d="M21 42H10V44H21V42Z" fill="#00B6C4"/>
<path d="M45 42H43V44H45V42Z" fill="#00B6C4"/>
<path d="M30 38C29.0111 38 28.0444 38.2932 27.2222 38.8427C26.3999 39.3921 25.759 40.173 25.3806 41.0866C25.0022 42.0002 24.9031 43.0055 25.0961 43.9755C25.289 44.9454 25.7652 45.8363 26.4645 46.5355C27.1637 47.2348 28.0546 47.711 29.0246 47.9039C29.9945 48.0969 30.9998 47.9978 31.9134 47.6194C32.8271 47.241 33.6079 46.6001 34.1574 45.7779C34.7068 44.9556 35 43.9889 35 43C34.9984 41.6744 34.4711 40.4036 33.5338 39.4662C32.5964 38.5289 31.3256 38.0016 30 38ZM30 46C29.4067 46 28.8266 45.8241 28.3333 45.4944C27.8399 45.1648 27.4554 44.6962 27.2284 44.148C27.0013 43.5999 26.9419 42.9967 27.0576 42.4147C27.1734 41.8328 27.4591 41.2982 27.8787 40.8787C28.2982 40.4591 28.8328 40.1734 29.4147 40.0576C29.9967 39.9419 30.5999 40.0013 31.1481 40.2284C31.6962 40.4554 32.1648 40.8399 32.4944 41.3333C32.8241 41.8266 33 42.4067 33 43C33 43.7956 32.6839 44.5587 32.1213 45.1213C31.5587 45.6839 30.7957 46 30 46Z" fill="#00B6C4"/>
<path d="M44 38C43.0111 38 42.0444 38.2932 41.2222 38.8427C40.3999 39.3921 39.759 40.173 39.3806 41.0866C39.0022 42.0002 38.9031 43.0055 39.0961 43.9755C39.289 44.9454 39.7652 45.8363 40.4645 46.5355C41.1637 47.2348 42.0546 47.711 43.0245 47.9039C43.9945 48.0969 44.9998 47.9978 45.9134 47.6194C46.8271 47.241 47.6079 46.6001 48.1574 45.7779C48.7068 44.9556 49 43.9889 49 43C48.9984 41.6744 48.4711 40.4036 47.5338 39.4662C46.5964 38.5289 45.3256 38.0016 44 38ZM44 46C43.4067 46 42.8266 45.8241 42.3333 45.4944C41.8399 45.1648 41.4554 44.6962 41.2284 44.148C41.0013 43.5999 40.9419 42.9967 41.0576 42.4147C41.1734 41.8328 41.4591 41.2982 41.8787 40.8787C42.2982 40.4591 42.8328 40.1734 43.4147 40.0576C43.9967 39.9419 44.5999 40.0013 45.1481 40.2284C45.6962 40.4554 46.1648 40.8399 46.4944 41.3333C46.8241 41.8266 47 42.4067 47 43C47 43.7956 46.6839 44.5587 46.1213 45.1213C45.5587 45.6839 44.7957 46 44 46Z" fill="#00B6C4"/>
<path d="M10 14H8V16H10V14Z" fill="#00B6C4"/>
<path d="M4 21H2V23H4V21Z" fill="#00B6C4"/>
<path d="M14 21H6V23H14V21Z" fill="#00B6C4"/>
<path d="M12 28H10V30H12V28Z" fill="#00B6C4"/>
<path d="M35 4H30V7C30 7.26522 29.8946 7.51957 29.7071 7.70711C29.5196 7.89464 29.2652 8 29 8H25C24.7348 8 24.4804 7.89464 24.2929 7.70711C24.1054 7.51957 24 7.26522 24 7V4H19V9.522L35 11.211V4Z" fill="#00B6C4"/>
<path d="M28 4H26V6H28V4Z" fill="#00B6C4"/>
<path d="M24 0H19V2H24V0Z" fill="#00B6C4"/>
<path d="M28 0H26V2H28V0Z" fill="#00B6C4"/>
<path d="M51 6H47V9C47 9.26522 46.8946 9.51957 46.7071 9.70711C46.5196 9.89464 46.2652 10 46 10H42C41.7348 10 41.4804 9.89464 41.2929 9.70711C41.1054 9.51957 41 9.26522 41 9V6H37V11.422L51 12.9V6Z" fill="#00B6C4"/>
<path d="M41 2H37V4H41V2Z" fill="#00B6C4"/>
<path d="M35 1V0H30V2H35V1Z" fill="#00B6C4"/>
<path d="M15.457 11.159L20.567 26H53.481L57.587 15.606L15.457 11.159Z" fill="#00B6C4"/>
<path d="M23.321 34H50.321L52.692 28H21.255L23.321 34ZM48 30H50V32H48V30ZM44 30H46V32H44V30ZM40 30H42V32H40V30ZM36 30H38V32H36V30ZM32 30H34V32H32V30ZM28 30H30V32H28V30Z" fill="#00B6C4"/>
<path d="M45 2H43V4H45V2Z" fill="#00B6C4"/>
<path d="M51 2H47V4H51V2Z" fill="#00B6C4"/>
<path d="M45 6H43V8H45V6Z" fill="#00B6C4"/>
<path d="M18 34V36H21.875L21.207 34H18Z" fill="#00B6C4"/>
<path d="M19.141 28H14V30H19.829L19.141 28Z" fill="#00B6C4"/>
<path d="M7 8C7.61826 7.99744 8.22063 7.80392 8.7247 7.44591C9.22877 7.08791 9.60992 6.58291 9.816 6H11.323L13.066 10.357L14.7 9.069L12.924 4.628C12.85 4.44326 12.7225 4.28481 12.5579 4.17293C12.3933 4.06106 12.199 4.00084 12 4H9.816C9.60992 3.41709 9.22877 2.91209 8.7247 2.55409C8.22063 2.19608 7.61826 2.00256 7 2H3C2.20435 2 1.44129 2.31607 0.87868 2.87868C0.316071 3.44129 0 4.20435 0 5C0 5.79565 0.316071 6.55871 0.87868 7.12132C1.44129 7.68393 2.20435 8 3 8H7Z" fill="#00B6C4"/>
<path d="M12 14V16H15.009L14.32 14H12Z" fill="#00B6C4"/>
</svg>
