<svg width="129" height="102" viewBox="0 0 129 102" fill="none" xmlns="http://www.w3.org/2000/svg">
<path d="M128.5 100.969H123.987C123.711 100.969 123.487 101.193 123.487 101.469C123.487 101.746 123.711 101.969 123.987 101.969H128.5C128.776 101.969 129 101.746 129 101.469C129 101.193 128.776 100.969 128.5 100.969Z" fill="#00B6C4"/>
<path d="M0.5 101.969H1.86328C2.13965 101.969 2.36328 101.746 2.36328 101.469C2.36328 101.193 2.13965 100.969 1.86328 100.969H0.5C0.223633 100.969 0 101.193 0 101.469C0 101.746 0.223633 101.969 0.5 101.969Z" fill="#00B6C4"/>
<path d="M53.958 13.6655C53.5352 14.5127 53.3135 15.4629 53.3135 16.4395C53.3135 17.9615 53.8417 19.3853 54.812 20.5167C53.8934 21.1406 53.3027 22.287 53.3027 23.3579C53.3027 24.5425 53.9059 25.5885 54.8212 26.2057C55.3687 26.5795 56.0284 26.7983 56.7383 26.7983C58.6406 26.7983 60.1875 25.2515 60.1875 23.3501C60.1875 23.1304 60.1689 22.9219 60.1318 22.7222C61.2559 22.6274 62.3545 22.2222 63.293 21.5537C64.8269 22.3833 66.6094 22.4307 68.2348 21.5372C69.827 20.6635 70.9209 18.996 70.9209 17.0615C70.9209 16.2395 70.6538 15.2948 70.2715 14.5996C73.082 13.4292 74.9287 10.689 74.9287 7.59473C74.9287 3.40674 71.5117 0 67.3115 0C65.6904 0 64.168 0.494141 62.8857 1.43311C57.8555 -1.62032 51.3096 1.973 51.3096 7.91113L51.3098 7.91339L51.3096 7.91699C51.3096 10.0602 52.2463 12.214 53.958 13.6655ZM67.3115 1C70.96 1 73.9287 3.9585 73.9287 7.59473C73.9287 10.359 72.2228 12.7822 69.6644 13.7458C69.1121 13.101 68.4084 12.5806 67.583 12.27C67.3252 12.1729 67.0361 12.3032 66.9395 12.5615C66.8418 12.8203 66.9727 13.1084 67.2314 13.2056C68.9288 13.8445 69.9141 15.5142 69.9141 17.0664C69.9141 18.7707 68.8704 20.2366 67.3866 20.8646C66.8896 21.0746 66.3434 21.191 65.7702 21.1912C64.1735 21.1904 62.7057 20.2537 62.0303 18.8047C61.9131 18.5537 61.6162 18.4482 61.3662 18.5625C61.1152 18.6792 61.0068 18.9766 61.124 19.2266C61.4319 19.8876 61.8745 20.4605 62.407 20.9238C61.5602 21.4473 60.5949 21.7441 59.6182 21.7441H59.457C59.2861 21.7441 59.127 21.8315 59.0352 21.9756C58.9434 22.1196 58.9316 22.3003 59.0039 22.4556C59.1242 22.7148 59.1829 23.0016 59.1855 23.3292C59.1849 23.3392 59.1797 23.3477 59.1797 23.3579C59.1797 24.6997 58.084 25.791 56.7363 25.791C56.2346 25.791 55.7679 25.638 55.3801 25.3768C54.7371 24.9361 54.3135 24.1923 54.3135 23.3501C54.3135 22.4229 54.8678 21.512 55.8242 21.1167C55.8342 21.1125 55.8398 21.1025 55.8495 21.0978C56.1251 20.9893 56.4227 20.9248 56.7363 20.9248C57.0127 20.9248 57.2363 20.7012 57.2363 20.4248C57.2363 20.1484 57.0127 19.9248 56.7363 19.9248C56.405 19.9248 56.0908 19.9869 55.7874 20.0748C54.8461 19.092 54.3135 17.8198 54.3135 16.4395C54.3135 15.6769 54.4803 14.9384 54.7864 14.2684C55.341 14.6259 55.9362 14.9326 56.5889 15.1411C56.6396 15.1577 56.6904 15.165 56.7412 15.165C56.9531 15.165 57.1494 15.0298 57.2178 14.8174C57.3018 14.5542 57.1563 14.2729 56.8936 14.189C54.1888 13.3249 52.3108 10.7801 52.3098 7.91339C52.3139 0.223904 63.345 -1.19688 65.2979 6.24707C65.3672 6.51416 65.6387 6.67285 65.9082 6.60352C66.1748 6.53369 66.335 6.26025 66.2646 5.99316C65.85 4.41254 64.9418 3.07019 63.7446 2.08142C64.7985 1.38544 66.0122 1 67.3115 1Z" fill="#00B6C4"/>
<path d="M68.5941 9.67334C68.9979 9.67334 69.3259 9.34528 69.3259 8.94165C69.3259 8.51257 68.9979 8.18451 68.5941 8.18451C68.1904 8.18451 67.8623 8.51257 67.8623 8.94165C67.8623 9.34528 68.1904 9.67334 68.5941 9.67334Z" fill="#00B6C4"/>
<path d="M56.3588 10.4612C56.054 10.4612 55.8064 10.7089 55.8064 11.0328C55.8064 11.3375 56.054 11.5851 56.3588 11.5851C56.6636 11.5851 56.9113 11.3375 56.9113 11.0328C56.9113 10.7089 56.6636 10.4612 56.3588 10.4612Z" fill="#00B6C4"/>
<path d="M65.3838 17.786C65.3838 18.0908 65.6314 18.3384 65.9361 18.3384C66.241 18.3384 66.4886 18.0908 66.4886 17.786C66.4886 17.4621 66.241 17.2145 65.9361 17.2145C65.6314 17.2145 65.3838 17.4621 65.3838 17.786Z" fill="#00B6C4"/>
<path d="M60.2638 6.54742C59.959 6.54742 59.7114 6.79511 59.7114 7.11896C59.7114 7.42371 59.959 7.67133 60.2638 7.67133C60.5686 7.67133 60.8162 7.42371 60.8162 7.11896C60.8162 6.7951 60.5686 6.54742 60.2638 6.54742Z" fill="#00B6C4"/>
<path d="M56.4847 22.8892C56.18 22.8892 55.9324 23.1368 55.9324 23.4608C55.9324 23.7655 56.18 24.0131 56.4847 24.0131C56.7896 24.0131 57.0372 23.7655 57.0372 23.4608C57.0372 23.1368 56.7896 22.8892 56.4847 22.8892Z" fill="#00B6C4"/>
<path d="M35.9017 68.0353C35.67 68.0353 35.4817 68.2236 35.4817 68.4699C35.4817 68.7016 35.67 68.8898 35.9017 68.8898C36.1334 68.8898 36.3217 68.7016 36.3217 68.4699C36.3217 68.2236 36.1334 68.0353 35.9017 68.0353Z" fill="#00B6C4"/>
<path d="M40.4336 63.7583C39.3398 63.7583 38.4492 64.6484 38.4492 65.7427C38.4492 66.8369 39.3398 67.7271 40.4336 67.7271C41.5195 67.7271 42.4023 66.8369 42.4023 65.7427C42.4023 64.6484 41.5195 63.7583 40.4336 63.7583ZM40.4336 66.7271C39.8906 66.7271 39.4492 66.2856 39.4492 65.7427C39.4492 65.1909 39.8818 64.7583 40.4336 64.7583C40.9678 64.7583 41.4023 65.1997 41.4023 65.7427C41.4023 66.2856 40.9678 66.7271 40.4336 66.7271Z" fill="#00B6C4"/>
<path d="M36.2079 62.0666C36.2079 61.7347 35.9542 61.481 35.6418 61.481C35.3297 61.481 35.0759 61.7347 35.0759 62.0666C35.0759 62.3788 35.3297 62.6325 35.6418 62.6325C35.9542 62.6325 36.2079 62.3788 36.2079 62.0666Z" fill="#00B6C4"/>
<path d="M61.6966 68.0353C61.4649 68.0353 61.2766 68.2236 61.2766 68.4699C61.2766 68.7016 61.4649 68.8898 61.6966 68.8898C61.9284 68.8898 62.1166 68.7016 62.1166 68.4699C62.1166 68.2236 61.9284 68.0353 61.6966 68.0353Z" fill="#00B6C4"/>
<path d="M66.2285 63.7583C65.1348 63.7583 64.2441 64.6484 64.2441 65.7427C64.2441 66.8369 65.1348 67.7271 66.2285 67.7271C67.3145 67.7271 68.1973 66.8369 68.1973 65.7427C68.1973 64.6484 67.3145 63.7583 66.2285 63.7583ZM66.2285 66.7271C65.6855 66.7271 65.2441 66.2856 65.2441 65.7427C65.2441 65.1909 65.6768 64.7583 66.2285 64.7583C66.7627 64.7583 67.1973 65.1997 67.1973 65.7427C67.1973 66.2856 66.7627 66.7271 66.2285 66.7271Z" fill="#00B6C4"/>
<path d="M62.0028 62.0666C62.0028 61.7347 61.7491 61.481 61.4368 61.481C61.1246 61.481 60.8708 61.7347 60.8708 62.0666C60.8708 62.3788 61.1246 62.6325 61.4368 62.6325C61.7491 62.6325 62.0028 62.3788 62.0028 62.0666Z" fill="#00B6C4"/>
<path d="M87.4915 68.0353C87.2598 68.0353 87.0715 68.2236 87.0715 68.4699C87.0715 68.7016 87.2598 68.8898 87.4915 68.8898C87.7233 68.8898 87.9116 68.7016 87.9116 68.4699C87.9116 68.2236 87.7233 68.0353 87.4915 68.0353Z" fill="#00B6C4"/>
<path d="M92.0234 63.7583C90.9297 63.7583 90.0391 64.6484 90.0391 65.7427C90.0391 66.8369 90.9297 67.7271 92.0234 67.7271C93.1094 67.7271 93.9922 66.8369 93.9922 65.7427C93.9922 64.6484 93.1094 63.7583 92.0234 63.7583ZM92.0234 66.7271C91.4805 66.7271 91.0391 66.2856 91.0391 65.7427C91.0391 65.1909 91.4717 64.7583 92.0234 64.7583C92.5576 64.7583 92.9922 65.1997 92.9922 65.7427C92.9922 66.2856 92.5576 66.7271 92.0234 66.7271Z" fill="#00B6C4"/>
<path d="M87.7977 62.0666C87.7977 61.7347 87.544 61.481 87.2317 61.481C86.9195 61.481 86.6658 61.7347 86.6658 62.0666C86.6658 62.3788 86.9195 62.6325 87.2317 62.6325C87.544 62.6325 87.7977 62.3788 87.7977 62.0666Z" fill="#00B6C4"/>
<path d="M10.1962 100.969H4.0332C3.75684 100.969 3.5332 101.193 3.5332 101.469C3.5332 101.746 3.75684 101.969 4.0332 101.969C5.26905 101.969 104.052 101.969 121.818 101.969C122.095 101.969 122.318 101.746 122.318 101.469C122.318 101.193 122.095 100.969 121.818 100.969H118.803C118.569 97.3078 115.774 94.3075 112.152 93.8046V82.8901H114.779C116.301 82.8901 117.538 81.6523 117.538 80.1313C117.538 78.6104 116.301 77.3726 114.779 77.3726H112.152V44.7705H114.783C116.303 44.7705 117.538 43.5347 117.538 42.0078C117.538 40.4888 116.303 39.2529 114.783 39.2529H112.152V34.877C112.152 33.355 110.919 32.1167 109.392 32.1167C107.87 32.1167 106.632 33.355 106.632 34.877V39.2529H97.6123V34.8652C98.661 34.4543 99.4082 33.438 99.4082 32.2451C99.4082 30.6914 98.1445 29.4277 96.5908 29.4277H83.998C82.4453 29.4277 81.1816 30.6924 81.1816 32.2466C81.1816 33.4407 81.931 34.4572 82.9814 34.8666V39.2529H71.8115V34.867C72.8632 34.4576 73.6133 33.4402 73.6133 32.2451C73.6133 30.6914 72.3496 29.4277 70.7959 29.4277H58.2031C56.6504 29.4277 55.3867 30.6924 55.3867 32.2466C55.3867 33.4389 56.1337 34.4544 57.1816 34.8651V39.2529H46.0215V34.8655C47.0707 34.4549 47.8184 33.4384 47.8184 32.2451C47.8184 30.6914 46.5547 29.4277 45.001 29.4277H32.4082C30.8555 29.4277 29.5918 30.6924 29.5918 32.2466C29.5918 33.4407 30.3412 34.4572 31.3916 34.8666V39.2529H22.3623V34.877C22.3623 33.355 21.1289 32.1167 19.6016 32.1167C18.0801 32.1167 16.8418 33.355 16.8418 34.877V39.2529H14.2168C12.6973 39.2529 11.4619 40.4888 11.4619 42.0156C11.4619 43.5347 12.6973 44.7705 14.2168 44.7705H16.8418V77.3726H14.2207C12.7012 77.3726 11.4658 78.6084 11.4658 80.1353C11.4658 81.6543 12.7012 82.8901 14.2207 82.8901H16.8418V93.8054C13.2413 94.308 10.4327 97.2888 10.1962 100.969ZM116.747 97.8179H113.257C112.98 97.8179 112.757 98.0415 112.757 98.3179C112.757 98.5942 112.98 98.8179 113.257 98.8179H117.278C117.565 99.4876 117.754 100.209 117.81 100.969H11.1895C11.4419 97.5153 14.3086 94.7792 17.8142 94.7271C120.134 94.7215 108.252 94.727 111.186 94.7271C113.517 94.7618 115.562 95.9854 116.747 97.8179ZM31.6669 82.8901C32.5258 86.1013 35.4285 88.2866 38.7021 88.2866C41.9928 88.2866 44.8925 86.0397 45.7574 82.8901H57.457C58.3054 86.0623 61.1792 88.2866 64.502 88.2866C67.797 88.2866 70.6929 86.0393 71.5484 82.8901H83.2567C83.5854 84.1165 84.2161 85.238 85.127 86.1392C88.8603 89.9017 95.4644 88.6107 97.2803 83.1421C97.3051 83.0597 97.319 82.9733 97.3418 82.8901H106.632V93.7222H22.3623V82.8901H31.6669ZM44.7205 82.8901C43.8884 85.4715 41.451 87.2866 38.7021 87.2866C35.8026 87.2866 33.4544 85.3278 32.6886 82.8901H44.7205ZM70.5125 82.8901C69.6891 85.4715 67.2548 87.2866 64.502 87.2866C61.5921 87.2866 59.245 85.3299 58.4786 82.8901H70.5125ZM96.3104 82.8901C94.7543 87.5314 89.0743 88.6964 85.833 85.4312C85.1091 84.7151 84.5794 83.8461 84.2784 82.8901H96.3104ZM111.152 93.7256C111.13 93.7254 111.108 93.7222 111.085 93.7222H107.632V82.8901H111.152V93.7256ZM111.152 77.3726H107.632V44.7705H111.152V77.3726ZM97.6123 77.3726V44.7705H106.632V77.3726H97.6123ZM71.8154 77.3726V71.8027L71.8115 71.8028V44.7705H82.9814V77.3726H71.8154ZM46.0215 77.3726V44.7705H57.1816V77.3726H46.0215ZM22.3623 77.3726V44.7705H31.3916V77.3726H22.3623ZM45.0205 76.5166C44.2285 76.2856 43.6465 75.5557 43.6465 74.7007C43.6465 73.8125 44.21 73.0991 45.0205 72.8794V76.5166ZM45.0215 44.7705V55.3212C41.3791 54.6606 38.9993 55.119 37.082 55.5044C35.4172 55.8378 34.0743 56.0955 32.3916 55.553V44.7705H45.0215ZM32.3916 56.6057C33.0832 56.7988 33.7247 56.875 34.3467 56.875C35.3311 56.875 36.2676 56.6875 37.2783 56.4849C39.2399 56.0907 41.4664 55.6608 45.0215 56.3354V71.8643C43.6577 72.1097 42.6465 73.2694 42.6465 74.7007C42.6465 75.9028 43.4003 76.939 44.4604 77.3726H32.3916V56.6057ZM70.8115 76.5148C70.0217 76.2825 69.4414 75.5541 69.4414 74.7007C69.4414 73.8141 70.0032 73.1024 70.8115 72.8812V76.5148ZM70.8115 44.7705V55.3204C67.1711 54.6611 64.7934 55.1191 62.877 55.5044C61.2104 55.8381 59.8666 56.096 58.1816 55.5515V44.7705H70.8115ZM58.1816 56.6041C58.8751 56.7982 59.5182 56.875 60.1416 56.875C61.126 56.875 62.0625 56.6875 63.0732 56.4849C65.0339 56.0909 67.2593 55.6613 70.8115 56.3345V71.8648C69.4502 72.1121 68.4414 73.2711 68.4414 74.7007C68.4414 75.9028 69.1953 76.939 70.2554 77.3726H58.1816V56.6041ZM96.6104 76.5166C95.8184 76.2856 95.2363 75.5557 95.2363 74.7007C95.2363 73.8125 95.7998 73.0991 96.6104 72.8794V76.5166ZM96.6123 44.7705V55.3214C92.9694 54.6605 90.5894 55.119 88.6719 55.5044C87.007 55.8378 85.6641 56.0955 83.9814 55.553V44.7705H96.6123ZM83.9814 56.6057C84.673 56.7988 85.3146 56.875 85.9365 56.875C86.9209 56.875 87.8574 56.6875 88.8682 56.4849C90.83 56.0906 93.0557 55.6606 96.6123 56.3356V71.8641C95.2481 72.1093 94.2363 73.269 94.2363 74.7007C94.2363 75.9028 94.9902 76.939 96.0503 77.3726H83.9814V56.6057ZM107.632 34.877C107.632 33.9062 108.421 33.1167 109.402 33.1167C110.367 33.1167 111.152 33.9062 111.152 34.877V39.2529H107.632V34.877ZM82.1816 32.2451C82.1816 31.2432 82.9961 30.4277 83.998 30.4277H96.5908C97.5928 30.4277 98.4082 31.2432 98.4082 32.2451V32.2466C98.4082 33.2485 97.5928 34.064 96.5908 34.064H83.998C82.9961 34.064 82.1816 33.248 82.1816 32.2451ZM83.9814 35.0669H96.6123V39.2529H83.9814V35.0669ZM56.3867 32.2451C56.3867 31.2432 57.2012 30.4277 58.2031 30.4277H70.7959C71.7979 30.4277 72.6133 31.2432 72.6133 32.2451V32.2466C72.6133 33.2485 71.7979 34.064 70.7959 34.064H58.2031C57.2012 34.064 56.3867 33.248 56.3867 32.2451ZM58.1816 35.0669H70.8115V39.2529H58.1816V35.0669ZM30.5918 32.2451C30.5918 31.2432 31.4062 30.4277 32.4082 30.4277H45.001C46.0029 30.4277 46.8184 31.2432 46.8184 32.2451V32.2466C46.8184 33.2485 46.0029 34.064 45.001 34.064H32.4082C31.4062 34.064 30.5918 33.248 30.5918 32.2451ZM32.3916 35.0669H45.0215V39.2529H32.3916V35.0669ZM17.8418 36.2393H19.6045C19.8809 36.2393 20.1045 36.0156 20.1045 35.7393C20.1045 35.4629 19.8809 35.2393 19.6045 35.2393H17.8418V34.877C17.8418 33.9062 18.6309 33.1167 19.6123 33.1167C20.5771 33.1167 21.3623 33.9062 21.3623 34.877V39.2529H17.8418V36.2393ZM12.4619 42.0078C12.4619 41.04 13.249 40.2529 14.2168 40.2529C17.3984 40.253 116.322 40.2573 114.783 40.2529C115.751 40.2529 116.538 41.04 116.538 42.0156C116.538 42.9834 115.751 43.7705 114.783 43.7705C119.175 43.7614 14.3691 43.7705 14.2168 43.7705C13.249 43.7705 12.4619 42.9834 12.4619 42.0078ZM17.8418 44.7705H21.3623V77.3726H17.8418V44.7705ZM12.4658 80.1274C12.4658 79.1597 13.2529 78.3726 14.2207 78.3726H17.32C17.3276 78.3729 17.334 78.377 17.3418 78.377C17.2387 78.3768 23.4589 78.3728 45.5215 78.377C45.5292 78.377 45.5356 78.3729 45.5433 78.3726H57.6599C57.6675 78.3729 57.6739 78.377 57.6816 78.377H71.3115C71.3193 78.377 71.3257 78.3729 71.3333 78.3726C77.5424 78.3726 64.0298 78.3746 114.779 78.3726C115.749 78.3726 116.538 79.1616 116.538 80.1313C116.538 81.1011 115.749 81.8901 114.779 81.8901C100.336 81.8901 150.039 81.8901 45.385 81.8901C45.3805 81.89 45.3766 81.8872 45.3721 81.8872C45.2709 81.8872 14.1191 81.8902 14.2207 81.8901C13.2529 81.8901 12.4658 81.103 12.4658 80.1274ZM17.8418 82.8901H21.3623V93.7222H17.915C17.8903 93.7222 17.8665 93.7256 17.8418 93.7259V82.8901Z" fill="#00B6C4"/>
<path d="M19.5133 42.6204C19.8521 42.6204 20.1273 42.3452 20.1273 42.0064C20.1273 41.6783 19.8521 41.403 19.5133 41.403C19.1851 41.403 18.9099 41.6783 18.9099 42.0064C18.9099 42.3452 19.1851 42.6204 19.5133 42.6204Z" fill="#00B6C4"/>
</svg>
