<svg width="91" height="44" viewBox="0 0 91 44" fill="none" xmlns="http://www.w3.org/2000/svg">
<path d="M85 21.6C83.9 21.2 83 20.4 82.5 19.3L77.8 9.6C76.7 7.3 74.3 5.8 71.7 5.8H61.3V3.8C61.3 1.7 59.6 0.0999985 57.6 0.0999985H24.7C23.8 0.0999985 23.1 0.799999 23.1 1.7C23.1 2.6 23.8 3.3 24.7 3.3H57.5C57.8 3.3 58.1 3.6 58.1 3.9V35.5H31.3C30.6 32.5 27.9 30.2 24.6 30.2C21.3 30.2 18.6 32.5 17.9 35.5H14.5C14.2 35.5 13.9 35.2 13.9 34.9V31C13.9 30.1 13.2 29.4 12.3 29.4C11.4 29.4 10.7 30.1 10.7 31V34.9C10.7 37 12.4 38.6 14.4 38.6H18C18.7 41.6 21.4 43.9 24.7 43.9C28 43.9 30.7 41.6 31.4 38.6H59.8H66.5C67.2 41.6 69.9 43.9 73.2 43.9C76.5 43.9 79.2 41.6 79.9 38.6H85.8C88.2 38.6 90.2 36.6 90.2 34.2V28.7C90 25.5 88 22.7 85 21.6ZM24.7 40.8C22.6 40.8 21 39.1 21 37.1C21 35.1 22.7 33.4 24.7 33.4C26.8 33.4 28.4 35.1 28.4 37.1C28.4 39.1 26.8 40.8 24.7 40.8ZM73.1 40.8C71 40.8 69.4 39.1 69.4 37.1C69.4 35 71.1 33.4 73.1 33.4C75.2 33.4 76.8 35.1 76.8 37.1C76.8 39.1 75.1 40.8 73.1 40.8ZM86.9 34.2C86.9 34.9 86.3 35.5 85.6 35.5H79.7C79 32.5 76.3 30.2 73 30.2C69.8 30.2 67 32.5 66.3 35.5H61.1V21.5H75.5C76.4 21.5 77.1 20.8 77.1 19.9C77.1 19 76.4 18.3 75.5 18.3H61.3V8.8H71.7C73.1 8.8 74.4 9.6 75 10.8L79.7 20.5C80.6 22.3 82.1 23.6 84 24.3C85.8 24.9 87 26.6 87 28.5V34.2H86.9Z" fill="#00B6C4"/>
<path d="M18.3 10.4H32C32.9 10.4 33.6 9.7 33.6 8.8C33.6 7.9 32.9 7.2 32 7.2H18.3C17.4 7.2 16.7 7.9 16.7 8.8C16.7 9.7 17.5 10.4 18.3 10.4Z" fill="#00B6C4"/>
<path d="M9.89999 10.4H13.3C14.2 10.4 14.9 9.7 14.9 8.8C14.9 7.9 14.2 7.2 13.3 7.2H9.89999C8.99999 7.2 8.29999 7.9 8.29999 8.8C8.29999 9.7 9.09999 10.4 9.89999 10.4Z" fill="#00B6C4"/>
<path d="M18.3 17.5H40.8C41.7 17.5 42.4 16.8 42.4 15.9C42.4 15 41.7 14.3 40.8 14.3H18.3C17.4 14.3 16.7 15 16.7 15.9C16.8 16.8 17.5 17.5 18.3 17.5Z" fill="#00B6C4"/>
<path d="M9.89999 17.5H13.3C14.2 17.5 14.9 16.8 14.9 15.9C14.9 15 14.2 14.3 13.3 14.3H9.89999C8.99999 14.3 8.29999 15 8.29999 15.9C8.39999 16.8 9.09999 17.5 9.89999 17.5Z" fill="#00B6C4"/>
<path d="M26.6 22.9C26.6 22 25.9 21.3 25 21.3H9.89999C8.99999 21.3 8.29999 22 8.29999 22.9C8.29999 23.8 8.99999 24.5 9.89999 24.5H25C25.9 24.5 26.6 23.8 26.6 22.9Z" fill="#00B6C4"/>
<path d="M4.9 21.4H1.6C0.7 21.4 0 22.1 0 23C0 23.9 0.7 24.6 1.6 24.6H5C5.9 24.6 6.6 23.9 6.6 23C6.5 22.1 5.8 21.4 4.9 21.4Z" fill="#00B6C4"/>
</svg>
