<?xml version="1.0" encoding="utf-8"?><svg viewBox="0 0 129 102" xmlns="http://www.w3.org/2000/svg" xmlns:xlink="http://www.w3.org/1999/xlink"><style>:root>svg{display:none}:root>svg:target{display:block}</style><svg viewBox="0 0 80 70" id="affordable-price" xmlns="http://www.w3.org/2000/svg"><path d="M50.145 40.066l5.793 10.025-4.949-.525a.94.94 0 00-.957.563l-2.016 4.558-6.684-11.595a6.386 6.386 0 001.309-.577c1.203-.699 2.572-1.199 4.197-1.224 1.365-.022 2.437-.418 3.307-1.225zm-20.344-.005c.871.812 1.943 1.208 3.313 1.23 1.625.025 2.965.572 4.199 1.224.453.234.891.426 1.316.557l-6.688 11.604-2.02-4.547a.957.957 0 00-.965-.563l-4.938.525 5.783-10.03zm16.178-28.527c1.266 1.309 2.557 2.235 4.406 2.828 1.234.391 2.025 1.054 2.281 2.631.297 1.798.938 3.256 2.162 4.756.816 1.004 1.141 1.968.494 3.443-.729 1.667-.975 3.244-.76 5.17.145 1.287-.109 2.262-1.453 3.158-1.516 1.005-2.578 2.203-3.449 3.938-.572 1.161-1.328 1.853-2.938 1.886-1.816.03-3.354.489-5.035 1.453-1.078.624-2.109.88-3.422 0-1.615-1.079-3.225-1.423-5.037-1.453-1.615-.033-2.365-.725-2.943-1.886-.863-1.735-1.926-2.932-3.441-3.938-1.344-.896-1.605-1.871-1.459-3.158.219-1.926-.025-3.504-.76-5.17-.646-1.475-.324-2.439.494-3.443 1.225-1.5 1.869-2.958 2.166-4.756.256-1.577 1.047-2.24 2.281-2.631 1.85-.593 3.188-1.479 4.406-2.828 1.074-1.191 2.084-1.26 3.355-.989 2.469.537 3.563.338 6.207-.115 1.038-.178 1.898.537 2.445 1.104zM36.27 8.367c-1.41-.041-2.604.59-3.697 1.803-1.084 1.197-2.359 1.891-3.666 2.35-2.105.744-3.199 2-3.537 4.083-.256 1.599-.959 2.865-1.807 3.958-1.365 1.754-1.605 3.412-.762 5.339.652 1.483.762 2.915.637 4.301-.199 2.224.5 3.74 2.26 4.907 1.354.896 2.213 2.052 2.865 3.281l-7.109 12.375a.947.947 0 00.916 1.412l6.104-.651 2.496 5.619c.316.699 1.285.745 1.676.09l7.328-12.714 7.328 12.714c.391.667 1.375.62 1.688-.09l2.484-5.619 6.109.651a.944.944 0 00.912-1.412l-7.104-12.375c.65-1.229 1.51-2.385 2.863-3.281 1.762-1.167 2.459-2.683 2.262-4.907-.125-1.386-.021-2.817.629-4.301.85-1.927.605-3.585-.76-5.339-.85-1.093-1.547-2.36-1.803-3.958-.338-2.083-1.432-3.338-3.535-4.083-1.309-.459-2.584-1.152-3.668-2.35-1.094-1.213-2.266-1.844-3.682-1.75-1.787.125-3.885.865-5.938.215a5.301 5.301 0 00-1.489-.268z"/><path d="M39.941 18.498c-.572.011-1.031.396-1.025.869v1.178c-.078.021-.162.032-.244.052-1.543.442-2.74 1.604-2.74 3.026 0 .869.438 1.599 1.025 2.063.584.457 1.262.681 1.824.796 1.047.224 1.947.391 2.426.631.484.24.703.412.703 1.266 0 .417-.332.813-1.109 1.041-.775.224-1.963.209-3.328-.41-1.238-.626-2.301.967-1.004 1.5a8.317 8.317 0 002.447.691v1.095c0 1.146 2.084 1.146 2.084 0v-1.147c.166-.031.338-.066.494-.115 1.422-.41 2.5-1.426 2.5-2.655 0-1.276-.734-2.25-1.703-2.735-.975-.483-2.031-.634-2.994-.822-.855-.167-1.209-.583-1.293-1.197-.078-.62.531-1.161 1.355-1.401.822-.234 1.879-.162 2.91.645 1.006.85 2.512-.457 1.434-1.244A5.726 5.726 0 0041 20.474v-1.105c.004-.486-.475-.876-1.059-.871z"/><path fill-rule="evenodd" clip-rule="evenodd" d="M39.973 16.43a9.396 9.396 0 019.406 9.406 9.387 9.387 0 01-9.406 9.396 9.383 9.383 0 01-9.4-9.396 9.39 9.39 0 019.4-9.406zm0-1.891c-6.223 0-11.291 5.068-11.291 11.297 0 6.224 5.068 11.287 11.291 11.287 6.23 0 11.297-5.063 11.297-11.287 0-6.229-5.067-11.297-11.297-11.297z"/><path d="M29.328 64.191c-1.105 1.771-2.621 2.943-4.422 3.151-1.746.202-3.771-.604-5.813-2.199 1.848-.859 3.551-1.76 5.41-1.968 1.86-.213 3.188.168 4.825 1.016zM13.75 55.206c1.926.194 3.332 1.073 4.941 2.934-1.682 1.239-3.52 1.766-5.27 1.291-1.699-.458-3.281-1.958-4.584-4.197 1.526-.086 2.985-.225 4.913-.028zM3.094 41.988c1.916.693 3.754 1.256 4.941 2.016 1.281.823 2.23 2.188 2.98 4.525-2.031.48-3.934.24-5.355-.88-1.379-1.088-2.25-3.088-2.566-5.661zm-.578-14.375c1.52 1.354 3.02 2.557 3.844 3.708.879 1.234 1.254 2.855 1.082 5.308-2.066-.314-3.738-1.24-4.645-2.808-.875-1.526-.943-3.703-.281-6.208zm5.312-13.777c.797 1.88 1.641 3.609 1.891 5 .27 1.495-.084 3.121-1.281 5.261-1.74-1.162-2.859-2.714-3.006-4.521-.141-1.75.728-3.75 2.396-5.74zM16.91 3.394c.256 2.021.443 3.913.309 5.318-.146 1.516-.771 2.984-2.512 4.719-1.354-1.588-2.01-3.385-1.66-5.167.338-1.725 1.719-3.411 3.863-4.87zm.25-2.407c-3.322 1.792-5.322 4.261-5.844 6.937-.473 2.402.277 4.866 2.043 6.855a32.09 32.09 0 00-2.016 3.24c-.459-1.964-1.412-3.814-2.396-6.224a.956.956 0 00-1.531-.338c-2.756 2.582-3.963 5.546-3.744 8.26.223 2.708 1.906 5.089 4.594 6.5a32.37 32.37 0 00-.637 3.865c-1.266-1.677-2.984-2.958-4.973-4.797a.944.944 0 00-1.531.344c-1.375 3.514-1.219 6.713.141 9.072 1.307 2.272 3.723 3.672 6.613 3.885.209 1.272.496 2.532.859 3.781-1.797-1.071-3.844-1.667-6.379-2.593-.793-.287-1.309.229-1.293.891.084 3.771 1.359 6.683 3.5 8.369 2.063 1.631 4.834 2.032 7.605 1.147a32.202 32.202 0 002.238 3.219c-2.145-.35-4.316.057-7.113.088-.734.005-1.105.74-.844 1.322 1.551 3.443 3.879 5.609 6.504 6.324 2.531.687 5.23-.027 7.422-1.912a33.603 33.603 0 003.25 2.14c-2.135.469-4.025 1.62-6.613 2.729-.668.287-.777 1.048-.293 1.543 2.656 2.681 5.684 3.776 8.387 3.463 2.609-.301 4.859-1.968 6.197-4.547.938.256 1.885.479 2.85.65 1.266.25 1.604-1.672.322-1.864a30.408 30.408 0 01-23-18.74c-3.844-9.682-2.447-20.902 3.65-29.058 1.547-2.066 3.678-3.53 4-6.656.23-2.188-.307-4.338-.588-7.156a.936.936 0 00-1.38-.739zm33.465 63.204c1.104 1.771 2.62 2.943 4.422 3.151 1.744.202 3.766-.604 5.813-2.199-1.85-.859-3.553-1.76-5.412-1.968-1.86-.213-3.188.168-4.823 1.016zm15.578-8.985c-1.934.194-3.34 1.073-4.949 2.934 1.688 1.239 3.527 1.766 5.277 1.291 1.691-.458 3.275-1.958 4.582-4.197-1.525-.086-2.984-.225-4.91-.028zM76.86 41.988c-1.918.693-3.756 1.256-4.949 2.016-1.28.823-2.223 2.188-2.979 4.525 2.037.48 3.932.24 5.36-.88 1.381-1.088 2.25-3.088 2.568-5.661zm.58-14.375c-1.522 1.354-3.022 2.557-3.845 3.708-.887 1.234-1.256 2.855-1.084 5.308 2.063-.314 3.74-1.24 4.646-2.808.875-1.526.938-3.703.282-6.208zm-5.314-13.777c-.797 1.88-1.64 3.609-1.896 5-.27 1.495.084 3.121 1.287 5.261 1.734-1.162 2.854-2.714 3.004-4.521.14-1.75-.729-3.75-2.395-5.74zM63.041 3.394c-.256 2.021-.443 3.913-.307 5.318.145 1.516.77 2.984 2.504 4.719 1.355-1.588 2.012-3.385 1.668-5.167-.34-1.725-1.724-3.411-3.865-4.87zm-.25-2.407c3.322 1.792 5.322 4.261 5.844 6.937.47 2.402-.28 4.866-2.04 6.855a32.825 32.825 0 012.015 3.24c.453-1.964 1.41-3.814 2.395-6.224a.955.955 0 011.531-.338c2.75 2.582 3.965 5.546 3.746 8.26-.225 2.708-1.906 5.089-4.594 6.5.291 1.276.5 2.563.635 3.865 1.266-1.677 2.98-2.958 4.975-4.797a.944.944 0 011.531.344c1.375 3.514 1.213 6.713-.14 9.072-1.314 2.272-3.726 3.672-6.616 3.885a31.904 31.904 0 01-.859 3.781c1.791-1.071 3.844-1.667 6.381-2.593.791-.287 1.307.229 1.291.891-.088 3.771-1.359 6.683-3.5 8.369-2.063 1.631-4.834 2.032-7.604 1.147a33.603 33.603 0 01-2.24 3.219c2.146-.35 4.313.057 7.115.088.734.005 1.104.74.838 1.322-1.547 3.443-3.875 5.609-6.506 6.324-2.525.687-5.223-.027-7.422-1.912a31.969 31.969 0 01-3.25 2.14c2.141.469 4.027 1.62 6.621 2.729.666.287.775 1.048.285 1.543-2.65 2.681-5.676 3.776-8.385 3.463-2.609-.301-4.854-1.968-6.193-4.547-.938.256-1.885.479-2.848.65-1.266.25-1.605-1.672-.324-1.864a30.403 30.403 0 0023-18.74c3.844-9.682 2.45-20.902-3.65-29.058-1.547-2.066-3.682-3.53-4.006-6.656-.223-2.188.31-4.338.594-7.156.068-.717.818-1.04 1.38-.739z"/></svg><svg viewBox="0 0 66 68" id="business-processes" xmlns="http://www.w3.org/2000/svg"><path d="M32.95 45.17c3.7 0 6.56 2.86 6.56 6.56 0 3.6-2.86 6.56-6.56 6.56-3.6 0-6.56-2.96-6.56-6.56 0-3.7 2.96-6.56 6.56-6.56zm0-28.27a3.79 3.79 0 00-3.81 3.81c0 1.8 1.16 3.39 2.86 3.81v18.84c-3.28.42-6.03 2.75-6.99 5.82H.98V14.46c-.11-1.59 1.59-2.54 2.96-2.54h12.91l1.27 1.27c-.42.74-.74 1.59-1.06 2.33H14.2c-1.59 0-2.96 1.38-2.96 2.96v2.22c0 .53.42.95.95.95h.42v2.86c-1.27.42-2.22 1.59-2.22 2.96 0 1.69 1.38 3.07 3.07 3.07 1.8 0 3.18-1.38 3.18-3.07 0-1.38-.95-2.54-2.22-2.96v-2.86h2.65v9.84c-1.59.42-2.86 1.91-2.86 3.6a3.79 3.79 0 003.81 3.81 3.79 3.79 0 003.81-3.81c0-1.69-1.27-3.18-2.86-3.6v-9.84h2.65v2.86c-1.27.42-2.22 1.59-2.22 2.96 0 1.69 1.48 3.07 3.18 3.07 1.7 0 3.07-1.38 3.07-3.07 0-1.38-.95-2.54-2.22-2.96v-2.86h3.07v9.53l-2.54 2.75c-.21.11-.32.42-.32.64v4.13c-1.27.42-2.22 1.59-2.22 2.96 0 1.8 1.38 3.18 3.18 3.18 1.69 0 3.07-1.38 3.07-3.18 0-1.38-.95-2.54-2.12-2.86v-3.81l2.54-2.86c.11-.21.21-.42.21-.64v-10.8c0-.53-.42-.95-.95-.95h-3.49c.53-4.66 4.34-8.15 9.1-8.15s8.68 3.49 9.1 8.15h-3.49c-.53 0-.95.42-.95.95v10.8c0 .21.11.42.32.64l2.54 2.86v3.81c-1.27.32-2.12 1.48-2.12 2.86 0 1.8 1.38 3.18 3.07 3.18s3.07-1.38 3.07-3.18c0-1.38-.95-2.54-2.22-2.96v-4.13c0-.21-.11-.53-.32-.64l-2.43-2.75v-9.53h2.96v2.86a3.084 3.084 0 00-2.12 2.96c0 1.69 1.38 3.07 3.07 3.07s3.07-1.38 3.07-3.07c0-1.38-.95-2.54-2.12-2.96v-2.86h2.54v9.84c-1.59.42-2.86 1.91-2.86 3.6a3.79 3.79 0 003.81 3.81 3.79 3.79 0 003.81-3.81c0-1.69-1.16-3.18-2.86-3.6v-9.84h2.65v2.86a3.084 3.084 0 00-2.12 2.96c0 1.69 1.38 3.07 3.07 3.07s3.07-1.38 3.07-3.07c0-1.38-.85-2.54-2.12-2.96v-2.86h.32c.53 0 .95-.42.95-.95v-2.22c0-1.59-1.38-2.96-2.96-2.96h-2.86c-.21-.74-.53-1.59-.95-2.33l1.16-1.27h12.91c1.48 0 3.07.95 3.07 2.54v34.72H40.99c-1.06-3.07-3.7-5.4-7.09-5.82V24.53c1.69-.42 2.96-2.01 2.96-3.81.01-2.12-1.79-3.82-3.91-3.82zm0 1.8c1.16 0 2.01.95 2.01 2.01 0 1.16-.85 2.01-2.01 2.01a2.01 2.01 0 01-2.01-2.01c0-1.05.95-2.01 2.01-2.01zm0-8.99c-5.72 0-10.48 4.34-11.01 10.06h-8.79V18.5c0-.53.53-1.06 1.06-1.06h3.6c.42 0 .74-.32.85-.74.32-1.06.74-2.12 1.38-3.18.21-.32.21-.85-.11-1.16l-2.54-2.54c-.42-.42-.42-1.16 0-1.48l3.18-3.18c.42-.42 1.06-.42 1.48 0l2.54 2.43c.21.32.74.42 1.16.21.95-.53 2.12-1.06 3.18-1.38.42-.11.74-.42.74-.85v-3.6c0-.53.53-1.06 1.06-1.06h4.45c.64 0 1.16.53 1.16 1.06v3.6c0 .42.21.74.64.85 1.16.32 2.22.85 3.28 1.38.42.21.85.11 1.16-.21l2.43-2.43c.42-.42 1.16-.42 1.59 0l3.07 3.18c.53.32.42 1.06 0 1.48l-2.43 2.54c-.32.32-.42.85-.11 1.16.53 1.06.95 2.12 1.27 3.18.11.42.53.74.95.74h3.49c.64 0 1.06.53 1.06 1.06v1.27h-8.79c-.41-5.72-5.18-10.06-11-10.06zm-8.36 30.8c.64 0 1.16.53 1.16 1.16 0 .74-.53 1.27-1.16 1.27-.74 0-1.27-.53-1.27-1.27 0-.63.53-1.16 1.27-1.16zm16.83 0c.64 0 1.16.53 1.16 1.16 0 .74-.53 1.27-1.16 1.27-.74 0-1.27-.53-1.27-1.27 0-.63.53-1.16 1.27-1.16zM13.47 26.33c.74 0 1.27.53 1.27 1.16 0 .74-.53 1.27-1.27 1.27-.64 0-1.16-.53-1.16-1.27 0-.64.53-1.16 1.16-1.16zm38.96 0c.64 0 1.16.53 1.16 1.16 0 .74-.53 1.27-1.16 1.27-.64 0-1.27-.53-1.27-1.27 0-.64.53-1.16 1.27-1.16zm-29.85 0c.64 0 1.16.53 1.16 1.16 0 .74-.53 1.27-1.16 1.27-.74 0-1.27-.53-1.27-1.27 0-.64.52-1.16 1.27-1.16zm20.85 0c.64 0 1.16.53 1.16 1.16 0 .74-.53 1.27-1.16 1.27-.74 0-1.27-.53-1.27-1.27 0-.64.53-1.16 1.27-1.16zm-25.41 6.88c1.06 0 1.91.85 1.91 1.91 0 1.16-.85 2.01-1.91 2.01s-1.91-.85-1.91-2.01a1.91 1.91 0 011.91-1.91zm29.86 0c1.06 0 2.01.85 2.01 1.91 0 1.16-.95 2.01-2.01 2.01-1.06 0-1.91-.85-1.91-2.01 0-1.07.85-1.91 1.91-1.91zM.98 50.99h23.61v.74c0 1.16.32 2.22.74 3.28-7.2.11-14.29.42-21.38.85-1.48-.11-2.96-.85-2.96-2.54v-2.33H.98zm40.33 0h23.71v2.33c0 1.59-1.59 2.65-3.07 2.54-6.99-.42-14.18-.74-21.28-.85.42-1.06.64-2.12.64-3.28v-.74zm-1.8 5.93h.11l2.01 4.66H24.27l2.01-4.66h.11c1.59 1.91 3.92 3.18 6.56 3.18 2.65-.01 5.08-1.28 6.56-3.18zm-9.63-3.07c.11 1.27 1.06 2.01 2.22 2.33v.64c0 1.16 1.8 1.16 1.8 0v-.64c1.16-.32 2.22-1.27 2.22-2.65 0-1.69-1.59-2.75-3.18-2.75-.53 0-1.27-.32-1.27-.95 0-1.16 2.43-1.27 2.65-.11.21 1.16 1.91.95 1.8-.21-.21-1.16-1.16-2.01-2.22-2.33v-.64c0-1.16-1.8-1.16-1.8 0v.64c-1.27.32-2.22 1.27-2.22 2.65 0 1.69 1.59 2.75 3.07 2.75.53 0 1.38.32 1.38.95 0 1.27-2.54 1.27-2.75.11-.11-1.17-1.91-.96-1.7.21zm22.02-.43c0 1.16 1.91 1.16 1.91 0-.01-1.27-1.91-1.27-1.91 0zm4.02 0c0 1.16 1.91 1.16 1.91 0 0-1.27-1.91-1.27-1.91 0zm4.02 0c0 1.16 1.91 1.16 1.91 0 0-1.27-1.91-1.27-1.91 0zM17.07 67.08c0-2.54 1.06-3.7 3.6-3.7h24.66c2.43 0 3.49 1.16 3.49 3.7H17.07z"/></svg><svg viewBox="0 0 79 72" id="ecology" xmlns="http://www.w3.org/2000/svg"><path fill-rule="evenodd" clip-rule="evenodd" d="M69.61 47.551l-.022-.002C65.583 60.333 53.653 69.92 39.149 71.274l-.02.002a38.16 38.16 0 01-3.516.162C16.053 71.438.196 56.514.196 38.105c0-18.41 15.856-33.334 35.417-33.334 1.195 0 2.377.056 3.541.165v59.63C50.26 63.261 59.37 55.91 62.643 46.121c-8.654-2.66-15.658-8.391-18.74-16.376C40.03 19.706 43.341 8.654 51.48.564 63.237 1.853 73.313 8.33 77.186 18.369c3.874 10.04.564 21.092-7.575 29.182zM54.27 7.795c7.845 1.812 13.824 6.54 16.259 12.85 1.549 4.015 1.561 8.405.134 12.646a31.811 31.811 0 00-4.138-11.467c-.895-1.502-2.934-1.924-4.519-1.063-1.795.975-2.285 3.192-1.318 4.918a25.31 25.31 0 013.22 13.806c-6.403-2.21-11.223-6.511-13.347-12.015-2.435-6.31-1.073-13.547 3.709-19.675zm-31.621 6.592C14.519 18.33 8.678 25.87 7.499 34.772h7.007a37.686 37.686 0 018.143-20.385zm-1.033 20.385c.849-8.223 4.795-15.372 10.455-20.286v20.286H21.617zm0 6.666h10.455v20.286c-5.66-4.914-9.606-12.063-10.454-20.286zm-7.11 0a37.688 37.688 0 008.143 20.385c-8.13-3.945-13.971-11.483-15.15-20.385h7.007z"/></svg><svg viewBox="0 0 127 98" id="management-team" xmlns="http://www.w3.org/2000/svg"><path d="M29.652 62.586l-2.926 4.177 1.291 1.866c.276-.46.573-.892.887-1.297l1.241-4.173a14.69 14.69 0 01-.493-.573zm43.41-2.706a1.603 1.603 0 01-.204-.823 36.8 36.8 0 01-.957-1.133l-.21-.255-5.41 7.724 3.596 5.197 3.184-10.71zm1.08-2.314c.182-.024.37-.01.558.043l15.486 4.462.004.001c-.956-3.992-1.38-8.887-.932-13.636.465-4.919 1.868-9.704 4.587-13.228a18.236 18.236 0 012.192-2.386c3.065-2.77 6.49-3.752 9.766-3.515 3.247.235 6.338 1.677 8.769 3.767.757.65 1.449 1.362 2.06 2.114l.032.043c3.087 4.015 4.607 9.914 5.002 15.777.445 6.62-.551 13.259-2.345 17.095 2.371 1.337 4.123 2.904 5.355 4.753 2.288 3.436 2.737 7.74 1.995 13.266-.04.531-.461.95-.974.95h-24.042l.387 3.684a6.598 6.598 0 01-.236 2.623 6.354 6.354 0 01-1.254 2.277 5.96 5.96 0 01-2.008 1.566 5.676 5.676 0 01-2.443.54H30.463a5.674 5.674 0 01-2.444-.54 5.972 5.972 0 01-2.008-1.566 6.36 6.36 0 01-1.253-2.277 6.597 6.597 0 01-.237-2.623l.389-3.698-20.983-.148-.08.003a3.594 3.594 0 01-1.55-.343 3.79 3.79 0 01-1.272-.992 4.03 4.03 0 01-.944-3.106l1.11-10.558c.587-5.596 6.312-7.377 6.328-7.383v.003l9.65-2.78a.932.932 0 01.266-.037c.093-.154.2-.414.423-.685.16-.194.31-.378.447-.533l.005-1.59c-1.044-.788-1.938-1.672-2.697-2.77-.949-1.373-1.667-3.052-2.183-5.258-.73-.176-1.314-.74-1.764-1.507-.385-.656-.682-1.475-.89-2.295-.335-1.329-.444-2.737-.314-3.475.038-.219.104-.417.191-.597-.438-.837-.712-1.853-.847-2.906-.219-1.708-.076-3.57.33-4.886-.534-.932-.987-2.179-1.128-3.668-.126-1.33-.001-2.854.54-4.517.037-.135.1-.265.19-.379a.941.941 0 011.375-.129c.42.37.98.682 1.584.929a9.995 9.995 0 002.207.613l.036.004c.63.081 1.21.108 1.778.086.56-.022 1.123-.09 1.718-.2l.056-.014c.654-.136 1.112-.238 1.558-.337 2.22-.494 4.178-.93 6.72-.87h.04c1.6.065 3.499.495 5.061 1.412 1.12.657 2.076 1.563 2.66 2.762a2.442 2.442 0 01.953.412c.025.015.05.032.075.05 1.062.793 1.754 2.334 2.09 4.103.27 1.414.322 2.995.162 4.433-.112 1.001-.33 1.951-.65 2.757.178.258.31.574.379.959.15.853 0 2.851-.509 4.406a1.05 1.05 0 01-.034.09c-.191.565-.433 1.088-.73 1.505-.378.533-.849.909-1.423 1.038-.407 2.132-1.017 3.784-1.916 5.177-.654 1.014-1.45 1.874-2.421 2.663l.033 2.039c.128.147.267.316.413.493.234.285.344.56.442.709l.043.011 3.356.968a13.12 13.12 0 011.583-.649l15.486-4.463a1.38 1.38 0 01.559-.044c.214-.284.486-.643.767-.985.321-.39.62-.755.864-1.02l.01-3.134c-1.742-1.278-3.218-2.71-4.458-4.504-1.538-2.225-2.69-4.976-3.508-8.647a2.66 2.66 0 01-.24-.036c-1.056-.206-1.912-1.03-2.581-2.169-.586-.997-1.042-2.257-1.363-3.525-.519-2.056-.692-4.21-.497-5.322.035-.198.085-.382.148-.552-.892-1.427-1.434-3.283-1.682-5.217-.352-2.756-.118-5.76.542-7.867-.863-1.491-1.599-3.499-1.826-5.9-.2-2.128-.002-4.568.867-7.232.055-.202.15-.396.286-.568a1.41 1.41 0 012.06-.193c.686.605 1.6 1.111 2.58 1.513 1.199.492 2.48.824 3.583.995l.055.006a17.11 17.11 0 002.88.14 19.345 19.345 0 002.789-.326l.084-.02c1.028-.215 1.778-.382 2.508-.544 3.569-.794 6.717-1.495 10.798-1.4l.062.002c2.562.105 5.6.792 8.1 2.259 1.802 1.057 3.336 2.516 4.263 4.45.09.015.18.034.27.056a3.85 3.85 0 011.283.604c.038.023.076.048.112.075 1.69 1.261 2.792 3.717 3.328 6.536.428 2.253.51 4.784.252 7.102-.208 1.86-.642 3.608-1.3 5.011a3.3 3.3 0 01.386 1.096c.229 1.3-.01 4.366-.798 6.776-.294.902-.672 1.738-1.141 2.398-.542.763-1.207 1.292-2.01 1.45-.103.02-.206.033-.31.04-.638 3.557-1.611 6.275-3.072 8.539-1.068 1.654-2.384 3.048-4.006 4.333l.062 3.841c.232.258.51.594.805.954.282.343.554.703.769.987zm18.34 5.513c1.177.624 2.642 1.568 3.987 2.909l2.008-.751.238-.223.002.002.006-.006a4.347 4.347 0 00.355-.365 5.5 5.5 0 001.026-1.939 6.533 6.533 0 00.279-1.862 11.831 11.831 0 01-2.264-2.36c-1.874-2.555-3.033-6.007-3.033-9.337 0-1.841.29-5.088.826-8.052.408-2.253.968-4.371 1.67-5.66a.975.975 0 01.881-.587c.54 0 .978.462.978 1.03 0 1.235.931 2.098 2.185 2.698 2.574 1.233 6.35 1.376 7.486 1.377v-.004c3.008 0 4.585 1.152 5.427 3.236.754 1.865.803 4.396.803 7.513 0 3.26-1.126 6.22-2.945 8.37a10.711 10.711 0 01-1.716 1.63c-.01.673.053 1.455.236 2.196.164.663.422 1.286.809 1.739.074.087.154.171.24.252l-.002.003.002.002c.055.052.123.111.203.177l.003.003.002.002.003.002.002.002.031.025.003.002.002.003.038.03a.932.932 0 01.132.127l.071.065c1.92.565 3.619 1.19 5.115 1.882 1.658-3.515 2.573-9.763 2.149-16.066-.37-5.497-1.764-10.985-4.581-14.645a14.509 14.509 0 00-1.803-1.854c-2.135-1.835-4.836-3.1-7.663-3.305-2.798-.202-5.73.643-8.36 3.021a16.08 16.08 0 00-1.949 2.123c-2.46 3.188-3.737 7.593-4.167 12.152-.485 5.133.103 10.436 1.286 14.443zm5.782 5.1c.525.8.982 1.69 1.334 2.681.224.233.328.567.28.894.176.648.308 1.336.384 2.064l.417 3.969 2.241 2.584-4.019-12.784-.637.592zm2.779 13.068l.395 3.763h2.866l-3.261-3.763zM26.985 70.803l.043-.116-.069-.1.026.216zm4.795-6.269c.185-.138.37-.27.551-.396l-.399-.115-.152.511zm21.925-5.477c.007.293-.066.577-.203.821l3.17 10.666 3.456-5.148-5.266-7.715-.2.244c-.31.376-.64.778-.957 1.132zm-1.963 1.779l-14.536 4.19c-.395.127-7.296 2.453-7.998 9.13l-1.78 16.939c-.05.483-.012.932.112 1.341.126.416.343.807.646 1.166.304.358.648.627 1.024.805.368.174.788.262 1.253.262H61.8l-6.401-21.534-3.657-12.3zm13.022 33.833H96.1c.465 0 .885-.088 1.253-.262a3.047 3.047 0 001.023-.805c.304-.359.52-.75.647-1.166a3.38 3.38 0 00.11-1.341l-1.78-16.939a9.902 9.902 0 00-.082-.61v-.003l-.002-.008-.002-.012a10.057 10.057 0 00-.14-.629 1.056 1.056 0 01-.043-.216 9.443 9.443 0 00-.432-1.263 1.04 1.04 0 01-.136-.217 9.865 9.865 0 00-1.032-1.719 1.044 1.044 0 01-.174-.319c-2.293-2.905-5.68-4.046-5.953-4.135L74.82 60.837 71.16 73.15l-6.396 21.52zm-7.36-21.665l1.53 5.149 1.092-9.056-2.622 3.907zm2.577 8.67l3.3 11.103 3.1-10.425-1.935-16.047-2.553.011-.073.109-1.839 15.25zm7.446-2.843l1.725-5.802-2.935-4.24 1.21 10.042zm-3.13-14.066l6.328-9.03-.042-2.566c-.237.157-.479.312-.726.467-.586.365-1.894 1.058-3.505 1.55-1.054.32-2.24.555-3.449.557-1.192.003-2.381-.225-3.44-.538-1.546-.457-2.85-1.11-3.458-1.478l-.007 2.103 6.106 8.945 2.194-.01zM43.995 29.978a5.34 5.34 0 01-.714-.442c.02.936.197 2.21.518 3.485.277 1.093.658 2.159 1.134 2.969.393.67.828 1.139 1.276 1.226a.873.873 0 00.382-.016l.073-.02c.527-.117 1.045.238 1.157.794.768 3.822 1.866 6.582 3.357 8.74 1.484 2.146 3.384 3.733 5.754 5.205.489.305 1.64.885 3.059 1.305.916.27 1.929.468 2.913.466 1.007-.002 2.014-.203 2.914-.478 1.399-.426 2.537-1.03 3.048-1.348 2.663-1.666 4.618-3.374 6.038-5.574 1.416-2.194 2.33-4.919 2.912-8.617a1.06 1.06 0 01.049-.234c.174-.539.73-.825 1.24-.64a.826.826 0 00.44.05c.274-.053.546-.297.804-.66.33-.465.615-1.109.852-1.833.566-1.734.82-3.79.788-5.049-.622.61-1.343 1.029-2.167 1.203l-.001-.005a1.38 1.38 0 01-.251.03c-.806.02-1.475-.654-1.494-1.505l-.016-.738c-.005-.333-.013-.667-.013-1-.007-.904.005-1.655.015-2.317.044-2.745.06-3.79-1.68-7.436a.949.949 0 00-.113-.08.302.302 0 00-.089-.039c-4.653-.832-9.78.233-14.671 1.25-5.256 1.092-10.26 2.13-14.562.89l.307 9.216a1.6 1.6 0 01-.007.42c-.123.844-.871 1.422-1.671 1.292a5.26 5.26 0 01-1.581-.51zm.256-3.642l-.3-8.98c-.025-.85.608-1.562 1.414-1.589.249-.008.484.05.692.159 3.855 2.004 9.213.89 14.89-.289 5.144-1.069 10.533-2.188 15.714-1.261.37.066.721.205 1.05.402.309.184.597.42.863.691.139.144.245.31.32.487 2.16 4.482 2.14 5.72 2.088 9.067l-.007.46c.428-1.017.72-2.3.876-3.692.224-2.008.153-4.2-.217-6.148-.4-2.1-1.116-3.853-2.137-4.615l-.069-.054a1.01 1.01 0 00-.308-.142.492.492 0 00-.236-.004c-.732.177-1.462-.26-1.705-.99-.563-1.671-1.815-2.926-3.348-3.826-2.068-1.214-4.618-1.784-6.784-1.872h-.017c-3.738-.088-6.741.58-10.144 1.337-.898.2-1.82.406-2.542.556a1.36 1.36 0 01-.134.02c-1.104.206-2.15.334-3.198.374a19.711 19.711 0 01-3.337-.152 19.198 19.198 0 01-4.335-1.193 14.805 14.805 0 01-1.601-.767 13.93 13.93 0 00-.232 4.068c.206 2.183.94 3.931 1.74 5.108.33.485.355 1.103.116 1.6l-.092.229c-.59 1.675-.804 4.282-.492 6.721.22 1.724.696 3.309 1.472 4.295zM106.27 85.01h18.571c.524-4.606.094-8.184-1.761-10.97-1.473-2.211-3.87-3.984-7.427-5.44.141.36.182.743.132 1.116-.057.428-.233.84-.515 1.177-.172.207-.388.39-.643.532l-1.012.565.623.714c.31.354.72 1.086.679 1.967-.028.593-.245 1.238-.81 1.85l-7.837 8.489zm-.962-3.557l1.665-4.932a9.08 9.08 0 01-1.503.146 8.862 8.862 0 01-1.714-.154l1.552 4.94zm2.238-6.63l2.907-8.614a5.343 5.343 0 01-.178-.199c-.613-.717-1.007-1.642-1.244-2.6a10.393 10.393 0 01-.258-1.584 8.852 8.852 0 01-3.603.767v.005a7.208 7.208 0 01-2.915-.627 8.911 8.911 0 01-.297 1.364 7.596 7.596 0 01-1.423 2.671l-.06.07 2.749 8.744c.85.216 1.553.314 2.235.307.655-.008 1.315-.113 2.087-.303zm6.263-5.492l-1.78-1.654-4.336 12.844 5.017-5.435c.185-.2.254-.372.261-.511a.705.705 0 00-.168-.478l-1.478-1.692a.992.992 0 01-.147-.22c-.251-.502-.068-1.125.408-1.39l2.133-1.19a.312.312 0 00.086-.073.203.203 0 00.049-.098.106.106 0 00-.008-.06.15.15 0 00-.037-.043zm-11.971-9.922c.024.014.047.03.069.047 1 .683 2.103 1.08 3.263 1.08v.004c2.248 0 4.291-1.087 5.776-2.841 1.508-1.783 2.441-4.258 2.441-7 0-2.887-.039-5.216-.642-6.709-.515-1.274-1.565-1.98-3.634-1.98v-.003c-1.242-.001-5.382-.162-8.288-1.554-.95-.455-1.78-1.037-2.374-1.78a32.98 32.98 0 00-.622 2.808c-.511 2.827-.788 5.917-.788 7.666 0 2.886 1.001 5.873 2.62 8.08.64.873 1.375 1.62 2.179 2.182zM24.682 67.97l-.729-.003L22.84 77.2l1.566 5.266 1.44-4.845-1.164-9.65zm-.87-2.058l1.083.006 3.7-5.282-.013-.785c-.413.246-1.207.65-2.169.943-.683.208-1.454.36-2.243.362-.779.002-1.551-.146-2.236-.348a10.869 10.869 0 01-1.682-.658l-.002.546 3.561 5.216zm-6.949-1.942l-8.787 2.532v.002c-.013.004-4.503 1.402-4.948 5.634l-1.11 10.559a2.03 2.03 0 00.067.808c.076.25.207.486.39.702.183.216.39.379.617.486.22.104.474.157.755.157a.95.95 0 01.093.004l19.172.136-3.955-13.305-2.294-7.715zm4.299 7.583l.282.951.202-1.672-.484.721zm.832-4.788l-2.845-4.168c-.159.19-.322.384-.484.56l1.766 5.937 1.563-2.33zm-9.413-24.38a2.341 2.341 0 00.172.21l.735-5.972c.067-.563.554-.962 1.088-.89.11.014.214.048.308.097 2.368 1.231 5.34.591 8.533-.096 2.95-.635 6.074-1.309 9.308-.73.234.042.459.131.671.258l.003.002.001-.002c.197.118.38.268.55.44.092.096.164.207.212.326 1.327 2.752 1.336 3.544 1.304 5.565a9.146 9.146 0 00.406-1.922c.14-1.248.097-2.602-.13-3.797-.245-1.286-.683-2.358-1.304-2.822l-.044-.035a.57.57 0 00-.167-.076.242.242 0 00-.117-.002c-.488.118-.974-.173-1.136-.66-.344-1.02-1.11-1.788-2.05-2.338-1.274-.748-2.846-1.1-4.183-1.155h-.011c-2.313-.054-4.174.36-6.284.83-.565.125-1.147.255-1.58.345a.904.904 0 01-.089.014 13.77 13.77 0 01-1.99.232 12.246 12.246 0 01-2.083-.095l-.08-.013a12.005 12.005 0 01-2.63-.732 9.365 9.365 0 01-.922-.437 8.566 8.566 0 00-.125 2.415c.126 1.341.578 2.415 1.069 3.138.218.322.236.731.078 1.063l-.057.143c-.362 1.03-.493 2.634-.3 4.136.13 1.018.403 1.956.844 2.56zm-.215 2.426c.038.5.138 1.119.296 1.743.163.646.385 1.271.66 1.74.192.326.382.55.546.583a.19.19 0 00.076-.004l.063-.017c.527-.118 1.045.237 1.156.794.466 2.318 1.128 3.985 2.022 5.28.887 1.283 2.031 2.237 3.463 3.127.286.177.965.52 1.813.77.542.16 1.137.276 1.71.275.586-.001 1.177-.12 1.708-.281a8.093 8.093 0 001.806-.8c1.608-1.005 2.785-2.031 3.633-3.345.845-1.31 1.393-2.945 1.746-5.17.007-.08.023-.157.048-.235.175-.538.73-.825 1.24-.64.044.015.072.021.087.018.07-.014.165-.11.272-.26.171-.243.322-.576.45-.954l.023-.078c.287-.877.44-1.884.47-2.615-.28.193-.585.331-.919.408a.931.931 0 01-.212.03c-.537.014-.983-.435-.996-1.003-.008-.36-.019-.721-.019-1.08-.003-.563.004-1.03.01-1.441.027-1.689.037-2.335-1.029-4.571l-.05-.035v-.002a.12.12 0 00-.034-.014c-2.888-.517-5.826.116-8.598.713-3.05.657-5.915 1.274-8.548.44l-.738 5.994a.94.94 0 01-.01.104c-.08.563-.576.95-1.11.866a3.33 3.33 0 01-1.004-.324l-.031-.016z"/></svg><svg viewBox="0 0 19 22" id="play" xmlns="http://www.w3.org/2000/svg"><path d="M18.5 10.134a1 1 0 010 1.732L2 21.392a1 1 0 01-1.5-.866V1.474A1 1 0 012 .608l16.5 9.526z"/></svg><svg viewBox="0 0 50 86" id="preform-production" xmlns="http://www.w3.org/2000/svg"><path d="M18.663 32.036l-.008.011a3.569 3.569 0 01-2.86 1.393h-.005c-.122 0-.238-.006-.36-.018a.778.778 0 00-.35-.049 3.63 3.63 0 01-2.9-3.543c0-.736.228-1.457.65-2.064a3.64 3.64 0 012.97-1.546c.258 0 .499.019.721.068l.008.002a3.63 3.63 0 012.454 5.257c-.103.177-.21.345-.32.49zM15.79 33.24a3.417 3.417 0 002.998-1.79v-.002l.003-.002.003-.007a.537.537 0 00.034-.067c.23-.462.372-.987.372-1.542 0-1.876-1.524-3.4-3.4-3.4a3.402 3.402 0 00-3.4 3.4 3.415 3.415 0 003.387 3.41h.003zm16.071 22.607l3.301-1.329.277.685-3.302 1.327-.276-.683zM16.32 35.025a5.168 5.168 0 002.114-.688l2.786 7.91-1.98.665-2.92-7.887zm14.406 24.683l-.309-.771 1.265-.509a.697.697 0 00.048.002.86.86 0 00.23-.035h.001l.034-.008.031-.013 4.77-1.916a.749.749 0 00.29-.196l1.268-.51.305.762-7.933 3.194zM18.62 67.35a.042.042 0 01-.01.03.042.042 0 01-.03.01.042.042 0 01-.03-.01.042.042 0 01-.01-.03c0-.017.007-.027.01-.03a.042.042 0 01.03-.01c.017 0 .027.007.03.01.003.003.01.013.01.03zm3.874 12.69H9.28l6.155-12.995a3.159 3.159 0 003.145 3.465 3.163 3.163 0 002.9-1.914l1.014 11.444zm12.249-27.078l-11.295 4.261-.2-.559 23.349-8.81.21.564-11.36 4.284a.818.818 0 00-.121.032l-.004.002-.014.004-.014.006-.46.184h-.005l-.086.032z"/><mask id="fa"><path d="M26.1 76.52c.02 0 .02-.01.03-.01h.18c.01 0 .01 0 .01.01 0 0 .01 0 .01.01 0 0 .01 0 .01.01 0 0 .01 0 .01.01l.01.01.01.01.01.01.01.01.01.01.01.01.01.01.01.01.01.01s0 .01.01.01l.01.01s0 .01.01.01l2.43-.86-1.05-2.95-5.16-14.52-.63-1.78-1.9.72h-.01l-.51.18.96 2.72v.2s0 .01-.01.01c0 0 0 .01-.01.01 0 0 0 .01-.01.01 0 0 0 .01-.01.01l-.01.01-.01.01-.01.01-.01.01-.01.01-.01.01-.01.01-.01.01s-.01 0-.01.01c-.01 0-.01.01-.02.01h-.01l-.61.32c-.51.27-.9.72-1.09 1.27l-.21.61a.39.39 0 01-.14.17l-.27.14c-.21.11-.42.21-.63.29.53-.13 1.09-.15 1.67-.04 1.8.32 3.07 1.7 3.23 3.53l.94 10.62 2.77-.91z"/></mask><path d="M26.1 76.52c.02 0 .02-.01.03-.01h.18c.01 0 .01 0 .01.01 0 0 .01 0 .01.01 0 0 .01 0 .01.01 0 0 .01 0 .01.01l.01.01.01.01.01.01.01.01.01.01.01.01.01.01.01.01.01.01s0 .01.01.01l.01.01s0 .01.01.01l2.43-.86-1.05-2.95-5.16-14.52-.63-1.78-1.9.72h-.01l-.51.18.96 2.72v.2s0 .01-.01.01c0 0 0 .01-.01.01 0 0 0 .01-.01.01 0 0 0 .01-.01.01l-.01.01-.01.01-.01.01-.01.01-.01.01-.01.01-.01.01-.01.01s-.01 0-.01.01c-.01 0-.01.01-.02.01h-.01l-.61.32c-.51.27-.9.72-1.09 1.27l-.21.61a.39.39 0 01-.14.17l-.27.14c-.21.11-.42.21-.63.29.53-.13 1.09-.15 1.67-.04 1.8.32 3.07 1.7 3.23 3.53l.94 10.62 2.77-.91z"/><path d="M26.1 76.52v-1h-.16l-.152.05.312.95zm.22 0h-1v1h1v-1zm.01.01h-1v1h1v-1zm.01.01h-1v1h1v-1zm.01.01h-1v.414l.293.293.707-.707zm.01.01l.707-.707-.707.707zm.01.01l-.707.707.707-.707zm.01.01l-.707.707.707-.707zm.01.01l.707-.707-.707.707zm.01.01l.707-.707-.707.707zm.02.02l-.707.707.707-.707zm.01.01l.707-.707-.707.707zm.01.01h1v-.414l-.293-.293-.707.707zm.01.01l.707-.707-.293-.293h-.414v1zm.01.01h1v-.414l-.293-.293-.707.707zm.01.01v1h.172l.162-.057-.334-.943zm2.43-.86l.334.943.944-.335-.336-.943-.942.335zm-1.05-2.95l-.942.335.942-.335zm-5.16-14.52l-.943.334.943-.334zm-.63-1.78l.943-.334-.341-.963-.956.362.354.935zm-1.9.72v1h.183l.171-.065-.354-.935zm-.01 0v-1h-.171l-.162.057.333.943zm-.51.18l-.333-.943-.943.333.333.943.943-.333zm.96 2.72h1v-.171l-.057-.162-.943.333zm0 .2h-1 1zm-.01.01v-1h-1v1h1zm-.01.01v-1h-1v1h1zm-.01.01v-1h-1v1h1zm-.01.01v-1h-.414l-.293.293.707.707zm-.01.01l-.707-.707.707.707zm-.01.01l.707.707-.707-.707zm-.01.01l-.707-.707.707.707zm-.01.01l.707.707-.707-.707zm-.01.01l-.707-.707.707.707zm-.01.01l.707.707-.707-.707zm-.01.01l-.707-.707.707.707zm-.01.01v1h.414l.293-.293-.707-.707zm-.01.01v1h1v-1h-1zm-.03.01v-1h-.246l-.219.114.465.886zm-.61.32l-.465-.886-.003.002.468.884zm-1.09 1.27l-.945-.327v.002l.945.325zm-.21.61l.92.394.014-.034.012-.035-.946-.325zm-.14.17l.46.888.049-.026.046-.03-.555-.832zm-.27.14l-.46-.888-.004.002.464.886zm-.63.29l-.356-.934.594 1.905-.238-.971zm1.67-.04l-.186.983.011.002.175-.985zm3.23 3.53l-.996.087v.001l.996-.088zm.94 10.62l-.996.088.111 1.255 1.197-.393-.312-.95zm2.77.09a1.05 1.05 0 00.595-.188l.003-.001-.005.002a1.017 1.017 0 01-.434.168.987.987 0 01-.129.009v-2a1.022 1.022 0 00-.548.161l-.033.022-.005.004c-.001 0 0 0 0 0a.967.967 0 01.555-.176v1.999zm.03-.01h.01v-2h-.01v2zm.01 0h.02v-2h-.02v2zm.02 0h.01v-2h-.01v2zm.01 0h.02v-2h-.02v2zm.02 0h.01v-2h-.01v2zm.01 0h.02v-2h-.02v2zm.02 0h.01v-2h-.01v2zm.01 0h.02v-2h-.02v2zm.02 0h.01v-2h-.01v2zm.01 0h.02v-2h-.02v2zm.02 0h.01v-2h-.01v2zm.01 0h.01v-2h-.01v2zm.01 0h.01v-2h-.01v2zm.01 0c.027 0-.037.001-.104-.006-.06-.007-.347-.038-.594-.285a.991.991 0 01-.286-.594c-.008-.067-.006-.132-.006-.105h2v-.024a1.004 1.004 0 00-.894-.98c-.045-.005-.08-.005-.092-.006h-.024v2zm.01-.99l-.001 1h-.032a1.128 1.128 0 01-.13-.013.986.986 0 01-.66-.428.99.99 0 01-.167-.549h2a1.01 1.01 0 00-.976-1.01h-.032c-.001 0-.002 0-.002 1zm.01.01l-.001 1h-.015a1.07 1.07 0 01-.147-.014.99.99 0 01-.827-.976h2a1.01 1.01 0 00-.976-1.01h-.032c-.001 0-.002 0-.002 1zm.01.01l-.001 1h-.032a1.133 1.133 0 01-.13-.014.99.99 0 01-.827-.976h2a1.01 1.01 0 00-.976-1.01h-.032c-.001 0-.002 0-.002 1zm-.697.717l.01.01 1.414-1.414-.01-.01-1.414 1.414zm.01.01l.01.01 1.414-1.414-.01-.01-1.414 1.414zm.01.01l.01.01 1.414-1.414-.01-.01-1.414 1.414zm.01.01l.01.01 1.414-1.414-.01-.01-1.414 1.414zm.01.01l.01.01 1.414-1.414-.01-.01-1.414 1.414zm.01.01l.01.01 1.414-1.414-.01-.01-1.414 1.414zm.01.01l.01.01 1.414-1.414-.01-.01-1.414 1.414zm.01.01l.01.01 1.414-1.414-.01-.01-1.414 1.414zm.01.01l.01.01 1.414-1.414-.01-.01-1.414 1.414zm.717-.697l-1 .001v.033a.802.802 0 00.014.132 1.015 1.015 0 00.436.675c.183.122.383.169.56.169v-2a.99.99 0 01.99.957v.031c0 .001 0 .002-1 .002zm-.697.717l.01.01 1.414-1.414-.01-.01-1.414 1.414zm.717-.697l-1 .001v.033a.965.965 0 00.014.132 1.011 1.011 0 00.996.844v-2a.99.99 0 01.99.957v.031c0 .001 0 .002-1 .002zm.344.953l2.43-.86-.668-1.886-2.43.86.668 1.886zm3.038-2.138l-1.05-2.95-1.884.67 1.05 2.95 1.884-.67zm-1.05-2.95l-5.16-14.52-1.884.67 5.16 14.52 1.884-.67zm-5.16-14.519l-.63-1.78-1.885.668.63 1.78 1.886-.668zm-1.926-2.381l-1.9.72.708 1.87 1.9-.72-.708-1.87zm-1.546.655h-.01v2h.01v-2zm-.343.057l-.51.18.666 1.886.51-.18-.666-1.886zm-1.12 1.456l.96 2.72 1.886-.666-.96-2.72-1.886.666zM20.6 60.18h-1v.01h2v-.01h-1zm-1 .01v.02h2v-.02h-2zm0 .02v.01h2v-.01h-2zm0 .01v.02h2v-.02h-2zm0 .02v.01h2v-.01h-2zm1 .01h-1v.02h2v-.02h-1zm-1 .02v.01h2v-.01h-2zm0 .01v.01h2v-.01h-2zm1 .01h-1v.02h2v-.02h-1zm-1 .02v.01h2v-.01h-2zm0 .01v.02h2v-.02h-2zm0 .02v.01h2v-.01h-2zm0 .01v.01h2v-.01h-2zm0 .01v.01h2v-.01h-2zm0 .01v.01h2v-.01h-2zm1 .01h-1v-.033a.909.909 0 01.013-.13.986.986 0 01.428-.66.99.99 0 01.549-.167v2a1.01 1.01 0 001.01-.977v-.032l-1-.001zm-.01.01h-1v-.033a.909.909 0 01.013-.13.99.99 0 01.977-.827v2a1.01 1.01 0 001.01-.977v-.032l-1-.001zm-.01.01l-1-.001v-.032a1.14 1.14 0 01.014-.13.983.983 0 01.427-.66.99.99 0 01.549-.167v2a1.01 1.01 0 001.01-.976v-.032c0-.001 0-.002-1-.002zm-.01.01h-1v-.033a1.14 1.14 0 01.013-.13.988.988 0 01.977-.827v2a1.01 1.01 0 001.01-.977v-.032l-1-.001zm-.717-.697l-.01.01 1.414 1.414.01-.01-1.414-1.414zm-.01.01l-.01.01 1.414 1.414.01-.01-1.414-1.414zm-.01.01l-.01.01 1.414 1.414.01-.01-1.414-1.414zm-.01.01l-.01.01 1.414 1.414.01-.01-1.414-1.414zm-.01.01l-.01.01 1.414 1.414.01-.01-1.414-1.414zm-.01.01l-.01.01 1.414 1.414.01-.01-1.414-1.414zm-.01.01l-.01.01 1.414 1.414.01-.01-1.414-1.414zm-.01.01l-.01.01 1.414 1.414.01-.01-1.414-1.414zm.697.717l-.001-1h-.033a.965.965 0 00-.132.014 1.012 1.012 0 00-.844.996h2a.99.99 0 01-.957.99h-.031c-.001 0-.002 0-.002-1zm-.01-.99a1.02 1.02 0 00-.705.286l-.009.008a.025.025 0 00-.002.003l.001-.002.008-.007a.982.982 0 01.687-.278v2a1.02 1.02 0 00.714-.295l.002-.002-.001.002-.008.007a1.013 1.013 0 01-.29.195.983.983 0 01-.397.083v-2zm-.02 1.01v-1h-.01v2h.01v-1zm-.475-.886l-.61.32.93 1.771.61-.32-.93-1.77zm-.613.322a3.275 3.275 0 00-1.567 1.827l1.89.654c.106-.308.324-.56.613-.713l-.936-1.768zm-1.567 1.828l-.21.61 1.89.651.21-.61-1.89-.65zm-.184.542a.61.61 0 01.224-.268l1.11 1.664c.225-.15.4-.364.504-.608l-1.838-.788zm.319-.324l-.27.14.92 1.776.27-.14-.92-1.776zm-.274.142c-.19.1-.362.18-.522.242l.712 1.868c.26-.099.508-.218.738-.338l-.928-1.772zm.072 2.147a2.902 2.902 0 011.246-.028l.372-1.966a4.9 4.9 0 00-2.094.052l.476 1.942zm1.257-.026c1.356.24 2.288 1.254 2.409 2.632l1.992-.174c-.2-2.282-1.807-4.029-4.051-4.428l-.35 1.97zm2.409 2.633l.94 10.62 1.992-.176-.94-10.62-1.992.176zm2.248 11.482l2.77-.91-.624-1.9-2.77.91.624 1.9z" mask="url(#fa)"/><path d="M19.95 67.36v-.01a1.37 1.37 0 10-1.37 1.37c.752 0 1.355-.617 1.37-1.36zm-3.12-.01c0-.964.786-1.75 1.75-1.75s1.75.786 1.75 1.75-.786 1.75-1.75 1.75-1.75-.786-1.75-1.75zm17.808 4.66l-.001-.003-.52-1.168a.164.164 0 01-.003-.112.18.18 0 01.086-.089l.003-.001 7.39-3.28a.163.163 0 01.121-.009c.037.014.064.04.078.072l.001.003.519 1.167v.001a.167.167 0 010 .123.133.133 0 01-.072.078l-.003.001-7.397 3.289h-.001a.166.166 0 01-.123 0 .133.133 0 01-.078-.072zM13.296 15.805l-.004-.01-.005-.009c-.01-.02-.016-.054.001-.1l-.468-.176.468.176a.18.18 0 01.089-.095l7.912-3.562a.156.156 0 01.205.077l9.16 20.35.004.008.005.01c.01.02.016.055-.001.1a.133.133 0 01-.072.078l-.005.002-5.75 2.59h-.002l-.988.45h-.002l-1.178.53-.01.004-.009.005c-.02.01-.055.016-.1-.001a.133.133 0 01-.078-.072l-.003-.006-1.904-4.199a5.225 5.225 0 00-3.2-7.101l-4.065-9.049zM12.155 63.78l.003.002a7.364 7.364 0 002.915.567c-.226.28-.423.594-.585.938l-2.536 5.357C4.046 63.084.426 54.626 1.11 45.457l-.5-.037.499.037c.56-7.533 3.985-13.266 5.017-14.84.152-.223.358-.385.607-.478h.001l3.981-1.453a5.212 5.212 0 001.157 4.562 5.164 5.164 0 002.695 1.644l1.818 4.91a3.692 3.692 0 00-5.825 3.009c0 .697.2 1.36.55 1.927a4.602 4.602 0 00-3.16 1.791l-.758 1.008v.001a4.57 4.57 0 00-.932 2.951c.144 4.18 1.498 8.143 4.01 11.756v.002a4.337 4.337 0 001.885 1.533z"/><path d="M14.2 42.82a.02.02 0 01-.005.014.024.024 0 01-.015.007.036.036 0 01-.014-.004h-.002v-.001l-.002-.002a.034.034 0 01-.002-.014.02.02 0 01.005-.014.024.024 0 01.015-.007.02.02 0 01.014.006.022.022 0 01.004.007.022.022 0 01.002.008zM10.165 4.31l-.448-.994 4.787-2.156.447.994-4.787 2.156zm20.102 69.081l-.11-.246 2.705-1.202.11.246-2.706 1.203zM14.62 13.278L11.17 5.61l2.045-.924 2.054-.925 3.45 7.669-4.098 1.848z"/><path d="M13.538 44.77l-.003-.002A2.09 2.09 0 0112.15 42.8a2.1 2.1 0 012.1-2.09c1.157 0 2.098.949 2.09 2.076v.004a2.1 2.1 0 01-2.802 1.98zm-1.208-1.95c0 1.016.834 1.85 1.85 1.85a1.85 1.85 0 001.85-1.85c0-1.016-.834-1.85-1.85-1.85s-1.85.834-1.85 1.85zm32.065 38.62h4.515a.07.07 0 01.047.021c.007.007.01.014.012.018a.02.02 0 01.001.004v3.447c0 .027-.01.044-.02.054a.054.054 0 01-.04.016H1.1a.07.07 0 01-.07-.07V81.5c0-.011.004-.025.018-.038a.075.075 0 01.052-.022h42.818a.608.608 0 00.477 0zm-1.035-4.12v2.71H24.087l-.144-1.614 1.943-.665a.809.809 0 00.404.109.845.845 0 00.258-.046l.01-.003 2.708-.961H42.89c.26 0 .47.213.47.47z"/><mask id="fb"><path d="M28.81 72.8l-.31.13.68 1.91.45-.2-.03-.06v-.01l-.59-1.32-.2-.45z"/></mask><path d="M28.81 72.8l-.31.13.68 1.91.45-.2-.03-.06v-.01l-.59-1.32-.2-.45z"/><path d="M28.81 72.8l.914-.406-.398-.895-.903.379.387.922zm-.31.13l-.387-.922-.872.366.317.891.942-.335zm.68 1.91l-.942.335.362 1.017.986-.438-.406-.914zm.45-.2l.406.914.956-.425-.468-.936-.894.447zm-.03-.06h-1v.236l.106.211.894-.447zm0-.01h1v-.213l-.087-.195-.913.408zm-.59-1.32l-.914.406.001.002.913-.408zm-.587-1.372l-.31.13.774 1.844.31-.13-.774-1.844zm-.865 1.387l.68 1.91 1.884-.67-.68-1.91-1.884.67zm2.028 2.489l.45-.2-.812-1.828-.45.2.812 1.828zm.938-1.561l-.03-.06-1.788.894.03.06 1.788-.894zm.076.387v-.01h-2v.01h2zm-.087-.418l-.59-1.32-1.826.816.59 1.32 1.826-.816zm-.59-1.318l-.2-.45-1.827.812.2.45 1.828-.812z" mask="url(#fb)"/><path d="M26.38 39.388l-1.15-2.558.476-.214 3.623-1.634 1.15 2.558-4.098 1.848zm3.984 5.205l-1.152-2.553 1.362-.614h.001l.014-.006 1.154 2.556-1.38.617zm-3.906-3.075l-.134-.297 5.558-2.499.134.297-5.558 2.499zM14 29.83c0-1.005.808-1.81 1.8-1.81a1.811 1.811 0 010 3.62c-.992 0-1.8-.805-1.8-1.81z"/></svg><svg viewBox="0 0 58 48" id="product-cart" xmlns="http://www.w3.org/2000/svg"><path d="M31 42h-2v2h2v-2zM8 42H6v2h2v-2zm13 0H10v2h11v-2zm24 0h-2v2h2v-2z"/><path d="M30 38a4.999 4.999 0 100 9.998A4.999 4.999 0 0030 38zm0 8a3 3 0 110-5.999A3 3 0 0130 46zm14-8a4.999 4.999 0 100 9.998A4.999 4.999 0 0044 38zm0 8a3 3 0 110-5.999A3 3 0 0144 46zM10 14H8v2h2v-2zm-6 7H2v2h2v-2zm10 0H6v2h8v-2zm-2 7h-2v2h2v-2zM35 4h-5v3a1 1 0 01-1 1h-4a1 1 0 01-1-1V4h-5v5.522l16 1.689V4z"/><path d="M28 4h-2v2h2V4zm-4-4h-5v2h5V0zm4 0h-2v2h2V0zm23 6h-4v3a1 1 0 01-1 1h-4a1 1 0 01-1-1V6h-4v5.422L51 12.9V6zM41 2h-4v2h4V2zm-6-1V0h-5v2h5V1zM15.457 11.159L20.567 26h32.914l4.106-10.394-42.13-4.447zM23.321 34h27l2.371-6H21.255l2.066 6zM48 30h2v2h-2v-2zm-4 0h2v2h-2v-2zm-4 0h2v2h-2v-2zm-4 0h2v2h-2v-2zm-4 0h2v2h-2v-2zm-4 0h2v2h-2v-2zM45 2h-2v2h2V2zm6 0h-4v2h4V2z"/><path d="M45 6h-2v2h2V6zM18 34v2h3.875l-.668-2H18zm1.141-6H14v2h5.829l-.688-2zM7 8a3 3 0 002.816-2h1.507l1.743 4.357L14.7 9.069l-1.776-4.441A1 1 0 0012 4H9.816A3 3 0 007 2H3a3 3 0 100 6h4zm5 6v2h3.009l-.689-2H12z"/></svg><svg viewBox="0 0 129 102" id="quality-control" xmlns="http://www.w3.org/2000/svg"><path d="M128.5 100.969h-4.513a.5.5 0 000 1h4.513a.5.5 0 100-1zm-128 1h1.363a.5.5 0 100-1H.5a.5.5 0 100 1zm53.458-88.304a6.211 6.211 0 00-.645 2.774c0 1.523.529 2.946 1.499 4.078-.919.624-1.51 1.77-1.51 2.84 0 1.186.604 2.232 1.52 2.849a3.388 3.388 0 001.916.592 3.452 3.452 0 003.394-4.076 6.397 6.397 0 003.161-1.168c1.534.83 3.316.877 4.942-.017 1.592-.873 2.686-2.541 2.686-4.476 0-.822-.267-1.766-.65-2.461a7.564 7.564 0 004.658-7.005C74.929 3.407 71.512 0 67.31 0a7.418 7.418 0 00-4.425 1.433c-5.03-3.053-11.576.54-11.576 6.478v.006c0 2.143.936 4.297 2.648 5.748zM67.311 1c3.649 0 6.618 2.958 6.618 6.595a6.555 6.555 0 01-4.265 6.15 5.12 5.12 0 00-2.081-1.475.5.5 0 10-.352.936c1.698.639 2.683 2.308 2.683 3.86a4.131 4.131 0 01-2.527 3.799 4.147 4.147 0 01-1.617.326 4.144 4.144 0 01-3.74-2.386.499.499 0 10-.906.422c.308.66.75 1.233 1.283 1.697-.847.523-1.812.82-2.789.82h-.161a.5.5 0 00-.453.712c.12.259.179.546.181.873 0 .01-.005.019-.005.029a2.44 2.44 0 01-3.8 2.019 2.454 2.454 0 01-1.067-2.027c0-.927.555-1.838 1.511-2.233.01-.005.016-.015.026-.02.275-.108.573-.172.886-.172a.5.5 0 100-1 3.39 3.39 0 00-.949.15 5.212 5.212 0 01-1-5.807c.554.358 1.15.665 1.802.873a.5.5 0 00.305-.952 6.614 6.614 0 01-4.584-6.276c.004-7.69 11.035-9.11 12.988-1.666a.499.499 0 10.967-.254 7.559 7.559 0 00-2.52-3.912A6.42 6.42 0 0167.31 1z"/><path d="M68.594 9.673a.732.732 0 00.732-.731.738.738 0 00-.732-.757.738.738 0 00-.732.757c0 .403.328.731.732.731zm-12.235.788a.557.557 0 00-.553.572.553.553 0 001.105 0 .557.557 0 00-.552-.572zm9.025 7.325a.553.553 0 001.105 0 .557.557 0 00-.553-.572.557.557 0 00-.552.572zm-5.12-11.239a.557.557 0 00-.553.572.553.553 0 001.105 0 .557.557 0 00-.552-.572zM56.485 22.89a.557.557 0 00-.553.57.553.553 0 001.105 0 .557.557 0 00-.552-.57zM35.902 68.035a.424.424 0 00-.42.435.42.42 0 00.84 0 .424.424 0 00-.42-.435zm4.532-4.277c-1.094 0-1.985.89-1.985 1.985 0 1.094.89 1.984 1.985 1.984 1.086 0 1.968-.89 1.968-1.984a1.979 1.979 0 00-1.968-1.985zm0 2.97a.985.985 0 01-.985-.985.978.978 0 111.953 0 .978.978 0 01-.968.984zm-4.226-4.661a.57.57 0 00-.566-.586.571.571 0 00-.566.586.566.566 0 001.132 0zm25.489 5.968a.424.424 0 00-.42.435.42.42 0 00.84 0 .424.424 0 00-.42-.435zm4.531-4.277c-1.093 0-1.984.89-1.984 1.985 0 1.094.89 1.984 1.984 1.984 1.087 0 1.97-.89 1.97-1.984a1.979 1.979 0 00-1.97-1.985zm0 2.97a.985.985 0 01-.984-.985.978.978 0 111.953 0 .978.978 0 01-.968.984zm-4.225-4.661a.57.57 0 00-.566-.586.571.571 0 00-.566.586.566.566 0 001.132 0zm25.489 5.968a.424.424 0 00-.42.435.42.42 0 00.84 0 .424.424 0 00-.42-.435zm4.531-4.277c-1.093 0-1.984.89-1.984 1.985 0 1.094.89 1.984 1.984 1.984a1.98 1.98 0 001.97-1.984 1.979 1.979 0 00-1.97-1.985zm0 2.97a.985.985 0 01-.984-.985.978.978 0 111.953 0 .978.978 0 01-.969.984zm-4.225-4.661a.57.57 0 00-.566-.586.57.57 0 00-.566.586.566.566 0 001.132 0z"/><path d="M10.196 100.969H4.033a.5.5 0 100 1h117.785a.499.499 0 100-1h-3.015a7.746 7.746 0 00-6.651-7.164V82.89h2.627a2.762 2.762 0 002.759-2.759 2.762 2.762 0 00-2.759-2.758h-2.627V44.77h2.631a2.76 2.76 0 000-5.517h-2.631v-4.376a2.76 2.76 0 10-5.52 0v4.376h-9.02v-4.388a2.818 2.818 0 001.796-2.62 2.82 2.82 0 00-2.817-2.817H83.998a2.821 2.821 0 00-2.816 2.819c0 1.194.749 2.21 1.8 2.62v4.386h-11.17v-4.386a2.817 2.817 0 001.801-2.622 2.82 2.82 0 00-2.817-2.817H58.203a2.821 2.821 0 00-2.816 2.819c0 1.192.747 2.207 1.795 2.618v4.388h-11.16v-4.388a2.818 2.818 0 001.796-2.62 2.82 2.82 0 00-2.817-2.817H32.408a2.821 2.821 0 00-2.816 2.819c0 1.194.75 2.21 1.8 2.62v4.386h-9.03v-4.376a2.76 2.76 0 00-5.52 0v4.376h-2.625a2.76 2.76 0 000 5.517h2.625v32.603H14.22a2.76 2.76 0 000 5.517h2.62v10.915a7.746 7.746 0 00-6.645 7.164zm106.551-3.151h-3.49a.5.5 0 100 1h4.021a6.7 6.7 0 01.532 2.151H11.19a6.75 6.75 0 016.624-6.242c102.32-.005 90.438 0 93.372 0a6.738 6.738 0 015.561 3.09zM31.667 82.89a7.276 7.276 0 007.035 5.397c3.29 0 6.19-2.247 7.055-5.397h11.7a7.28 7.28 0 007.045 5.397c3.295 0 6.19-2.248 7.046-5.397h11.709a7.15 7.15 0 001.87 3.25c3.733 3.762 10.337 2.47 12.153-2.998.025-.082.039-.169.062-.252h9.29v10.832h-84.27V82.89h9.305zm13.053 0c-.832 2.582-3.269 4.397-6.018 4.397-2.9 0-5.248-1.96-6.013-4.397H44.72zm25.793 0c-.824 2.582-3.258 4.397-6.011 4.397-2.91 0-5.257-1.957-6.023-4.397h12.034zm25.797 0c-1.556 4.641-7.236 5.806-10.477 2.541a6.178 6.178 0 01-1.555-2.54H96.31zm14.842 10.836c-.022 0-.044-.004-.067-.004h-3.453V82.89h3.52v10.836zm0-16.353h-3.52V44.77h3.52v32.603zm-13.54 0V44.77h9.02v32.603h-9.02zm-25.797 0v-5.57h-.004V44.77h11.17v32.602H71.815zm-25.793 0V44.77h11.16v32.603h-11.16zm-23.66 0V44.77h9.03v32.603h-9.03zm22.659-.856a1.904 1.904 0 01-1.374-1.816c0-.888.563-1.602 1.373-1.822v3.638zm0-31.746v10.55c-3.642-.66-6.022-.202-7.939.183-1.665.334-3.008.592-4.69.049V44.771h12.63zm-12.63 11.835a7.178 7.178 0 001.956.269c.984 0 1.92-.188 2.931-.39 1.962-.394 4.188-.824 7.744-.15v15.53a2.863 2.863 0 00-2.375 2.836c0 1.202.753 2.238 1.813 2.672H32.392V56.606zm38.42 19.909a1.903 1.903 0 01-1.37-1.814c0-.887.562-1.599 1.37-1.82v3.634zm0-31.745v10.55c-3.64-.659-6.018-.2-7.934.184-1.667.334-3.01.592-4.695.047v-10.78h12.63zm-12.63 11.834a7.177 7.177 0 001.96.271c.985 0 1.922-.188 2.932-.39 1.96-.394 4.186-.824 7.738-.15v15.53a2.864 2.864 0 00-2.37 2.836c0 1.202.754 2.238 1.814 2.672H58.182V56.604zm38.43 19.913a1.904 1.904 0 01-1.375-1.816c0-.888.564-1.602 1.374-1.822v3.638zm.001-31.746v10.55c-3.643-.66-6.023-.202-7.94.183-1.665.334-3.008.592-4.69.049V44.771h12.63zm-12.63 11.835a7.164 7.164 0 001.954.269c.985 0 1.921-.188 2.932-.39 1.962-.394 4.188-.824 7.744-.15v15.53a2.864 2.864 0 00-2.376 2.836c0 1.202.754 2.238 1.814 2.672H83.981V56.606zm23.65-21.729c0-.97.789-1.76 1.77-1.76.965 0 1.75.79 1.75 1.76v4.376h-3.52v-4.376zm-25.45-2.632c0-1.002.814-1.817 1.816-1.817h12.593a1.82 1.82 0 011.817 1.817v.002a1.82 1.82 0 01-1.817 1.817H83.998a1.82 1.82 0 01-1.816-1.819zm1.8 2.822h12.63v4.186h-12.63v-4.186zm-27.595-2.822c0-1.002.814-1.817 1.816-1.817h12.593a1.82 1.82 0 011.817 1.817v.002a1.82 1.82 0 01-1.817 1.817H58.203a1.82 1.82 0 01-1.816-1.819zm1.795 2.822h12.63v4.186h-12.63v-4.186zm-27.59-2.822c0-1.002.814-1.817 1.816-1.817h12.593a1.82 1.82 0 011.817 1.817v.002a1.82 1.82 0 01-1.817 1.817H32.408a1.82 1.82 0 01-1.816-1.819zm1.8 2.822h12.63v4.186h-12.63v-4.186zm-14.55 1.172h1.763a.5.5 0 100-1h-1.763v-.362c0-.97.789-1.76 1.77-1.76.965 0 1.75.79 1.75 1.76v4.376h-3.52v-3.014zm-5.38 5.769c0-.968.787-1.755 1.755-1.755 3.181 0 102.105.004 100.566 0a1.758 1.758 0 010 3.517c4.392-.009-100.414 0-100.566 0a1.758 1.758 0 01-1.755-1.762zm5.38 2.762h3.52v32.603h-3.52V44.77zm-5.376 35.357c0-.967.787-1.754 1.755-1.754h3.099c.008 0 .014.004.022.004-.103 0 6.117-.004 28.18 0 .007 0 .014-.004.021-.004H57.66c.008 0 .014.004.022.004h13.63c.007 0 .014-.004.021-.004 6.21 0-7.303.002 43.446 0 .97 0 1.759.789 1.759 1.758a1.76 1.76 0 01-1.759 1.76H45.385c-.005-.001-.008-.004-.013-.004l-31.151.003a1.758 1.758 0 01-1.755-1.763zm5.376 2.763h3.52v10.832h-3.447c-.025 0-.049.004-.073.004V82.89z"/><path d="M19.513 42.62a.614.614 0 00.614-.614.612.612 0 00-.614-.603.61.61 0 00-.603.603c0 .34.275.614.603.614z"/></svg><svg viewBox="0 0 91 44" id="transport-accessibility" xmlns="http://www.w3.org/2000/svg"><path d="M85 21.6c-1.1-.4-2-1.2-2.5-2.3l-4.7-9.7c-1.1-2.3-3.5-3.8-6.1-3.8H61.3v-2c0-2.1-1.7-3.7-3.7-3.7H24.7c-.9 0-1.6.7-1.6 1.6 0 .9.7 1.6 1.6 1.6h32.8c.3 0 .6.3.6.6v31.6H31.3c-.7-3-3.4-5.3-6.7-5.3-3.3 0-6 2.3-6.7 5.3h-3.4c-.3 0-.6-.3-.6-.6V31c0-.9-.7-1.6-1.6-1.6-.9 0-1.6.7-1.6 1.6v3.9c0 2.1 1.7 3.7 3.7 3.7H18c.7 3 3.4 5.3 6.7 5.3 3.3 0 6-2.3 6.7-5.3h35.1c.7 3 3.4 5.3 6.7 5.3 3.3 0 6-2.3 6.7-5.3h5.9c2.4 0 4.4-2 4.4-4.4v-5.5c-.2-3.2-2.2-6-5.2-7.1zM24.7 40.8c-2.1 0-3.7-1.7-3.7-3.7s1.7-3.7 3.7-3.7c2.1 0 3.7 1.7 3.7 3.7s-1.6 3.7-3.7 3.7zm48.4 0c-2.1 0-3.7-1.7-3.7-3.7 0-2.1 1.7-3.7 3.7-3.7 2.1 0 3.7 1.7 3.7 3.7s-1.7 3.7-3.7 3.7zm13.8-6.6c0 .7-.6 1.3-1.3 1.3h-5.9c-.7-3-3.4-5.3-6.7-5.3-3.2 0-6 2.3-6.7 5.3h-5.2v-14h14.4c.9 0 1.6-.7 1.6-1.6 0-.9-.7-1.6-1.6-1.6H61.3V8.8h10.4c1.4 0 2.7.8 3.3 2l4.7 9.7c.9 1.8 2.4 3.1 4.3 3.8 1.8.6 3 2.3 3 4.2v5.7h-.1z"/><path d="M18.3 10.4H32c.9 0 1.6-.7 1.6-1.6 0-.9-.7-1.6-1.6-1.6H18.3c-.9 0-1.6.7-1.6 1.6 0 .9.8 1.6 1.6 1.6zm-8.4 0h3.4c.9 0 1.6-.7 1.6-1.6 0-.9-.7-1.6-1.6-1.6H9.9c-.9 0-1.6.7-1.6 1.6 0 .9.8 1.6 1.6 1.6zm8.4 7.1h22.5c.9 0 1.6-.7 1.6-1.6 0-.9-.7-1.6-1.6-1.6H18.3c-.9 0-1.6.7-1.6 1.6.1.9.8 1.6 1.6 1.6zm-8.4 0h3.4c.9 0 1.6-.7 1.6-1.6 0-.9-.7-1.6-1.6-1.6H9.9c-.9 0-1.6.7-1.6 1.6.1.9.8 1.6 1.6 1.6zm16.7 5.4c0-.9-.7-1.6-1.6-1.6H9.9c-.9 0-1.6.7-1.6 1.6 0 .9.7 1.6 1.6 1.6H25c.9 0 1.6-.7 1.6-1.6zM4.9 21.4H1.6c-.9 0-1.6.7-1.6 1.6 0 .9.7 1.6 1.6 1.6H5c.9 0 1.6-.7 1.6-1.6-.1-.9-.8-1.6-1.7-1.6z"/></svg></svg>